<svg width="39" height="39" viewBox="0 0 39 39" fill="none" xmlns="http://www.w3.org/2000/svg">
<rect width="38.2526" height="38.2526" rx="19.1263" fill="#E1EEFF"/>
<path d="M19.726 18.1263C19.326 18.0263 18.926 17.8263 18.626 17.5263C18.326 17.4263 18.226 17.1263 18.226 16.9263C18.226 16.7263 18.326 16.4263 18.526 16.3263C18.826 16.1263 19.126 15.9263 19.426 16.0263C20.026 16.0263 20.526 16.3263 20.826 16.7263L21.726 15.5263C21.426 15.2263 21.126 15.0263 20.826 14.8263C20.526 14.6263 20.126 14.5263 19.726 14.5263V13.1263H18.526V14.5263C18.026 14.6263 17.526 14.9263 17.126 15.3263C16.726 15.8263 16.426 16.4263 16.526 17.0263C16.526 17.6263 16.726 18.2263 17.126 18.6263C17.626 19.1263 18.326 19.4263 18.926 19.7263C19.226 19.8263 19.626 20.0263 19.926 20.2263C20.126 20.4263 20.226 20.7263 20.226 21.0263C20.226 21.3263 20.126 21.6263 19.926 21.9263C19.626 22.2263 19.226 22.3263 18.926 22.3263C18.526 22.3263 18.026 22.2263 17.726 21.9263C17.426 21.7263 17.126 21.4263 16.926 21.1263L15.926 22.2263C16.226 22.6263 16.526 22.9263 16.926 23.2263C17.426 23.5263 18.026 23.8263 18.626 23.8263V25.1263H19.726V23.6263C20.326 23.5263 20.826 23.2263 21.226 22.8263C21.726 22.3263 22.026 21.5263 22.026 20.8263C22.026 20.2263 21.826 19.5263 21.326 19.1263C20.826 18.6263 20.326 18.3263 19.726 18.1263ZM19.126 11.1263C14.726 11.1263 11.126 14.7263 11.126 19.1263C11.126 23.5263 14.726 27.1263 19.126 27.1263C23.526 27.1263 27.126 23.5263 27.126 19.1263C27.126 14.7263 23.526 11.1263 19.126 11.1263ZM19.126 26.0263C15.326 26.0263 12.226 22.9263 12.226 19.1263C12.226 15.3263 15.326 12.2263 19.126 12.2263C22.926 12.2263 26.026 15.3263 26.026 19.1263C26.026 22.9263 22.926 26.0263 19.126 26.0263Z" fill="#0554FF"/>
</svg>
