<svg width="32" height="32" viewBox="0 0 32 32" fill="none" xmlns="http://www.w3.org/2000/svg">
<path fill-rule="evenodd" clip-rule="evenodd" d="M16 5C11.6787 5 8.32533 7.70667 7.75333 11H10.6667C10.9319 11 11.1862 11.1054 11.3738 11.2929C11.5613 11.4804 11.6667 11.7348 11.6667 12V21.3333C11.6667 21.5985 11.5613 21.8529 11.3738 22.0404C11.1862 22.228 10.9319 22.3333 10.6667 22.3333H6.66667C5.69421 22.3333 4.76158 21.947 4.07394 21.2594C3.38631 20.5718 3 19.6391 3 18.6667V14.6667C2.99983 13.8601 3.26558 13.0761 3.75611 12.4359C4.24663 11.7956 4.93455 11.335 5.71333 11.1253C6.22267 6.45333 10.7653 3 16 3C21.2347 3 25.7773 6.45333 26.2867 11.1253C27.0655 11.335 27.7534 11.7956 28.2439 12.4359C28.7344 13.0761 29.0002 13.8601 29 14.6667V18.6667C29.0003 19.4756 28.733 20.262 28.2398 20.9032C27.7467 21.5445 27.0553 22.0046 26.2733 22.212C26.0614 23.7249 25.3097 25.1103 24.1569 26.1127C23.004 27.1151 21.5277 27.667 20 27.6667H18.4733C18.2413 28.2404 17.8169 28.7155 17.2729 29.0106C16.729 29.3057 16.0993 29.4024 15.4919 29.2842C14.8844 29.166 14.337 28.8402 13.9434 28.3627C13.5498 27.8851 13.3346 27.2855 13.3346 26.6667C13.3346 26.0478 13.5498 25.4482 13.9434 24.9707C14.337 24.4931 14.8844 24.1673 15.4919 24.0491C16.0993 23.9309 16.729 24.0276 17.2729 24.3227C17.8169 24.6179 18.2413 25.093 18.4733 25.6667H20C20.9756 25.6669 21.9226 25.3379 22.688 24.733C23.4534 24.128 23.9922 23.2826 24.2173 22.3333H21.3333C21.0681 22.3333 20.8138 22.228 20.6262 22.0404C20.4387 21.8529 20.3333 21.5985 20.3333 21.3333V12C20.3333 11.7348 20.4387 11.4804 20.6262 11.2929C20.8138 11.1054 21.0681 11 21.3333 11H24.2467C23.6747 7.70667 20.3213 5 16 5ZM6.66667 13C5.74667 13 5 13.7467 5 14.6667V18.6667C5 19.5867 5.74667 20.3333 6.66667 20.3333H9.66667V13H6.66667ZM27 14.6667C27 13.7467 26.2533 13 25.3333 13H22.3333V20.3333H25.3333C26.2533 20.3333 27 19.5867 27 18.6667V14.6667Z" fill="#757575"/>
</svg>
