<svg width="40" height="40" viewBox="0 0 40 40" fill="none" xmlns="http://www.w3.org/2000/svg">
<rect width="40" height="40" rx="4" fill="#FEF0FE"/>
<path d="M12.687 14.213L14.8 26.976C14.8967 27.5603 15.1976 28.0913 15.6492 28.4744C16.1008 28.8575 16.6738 29.0679 17.266 29.068H20.614M27.312 14.213L25.2 26.976C25.1033 27.5603 24.8024 28.0913 24.3508 28.4744C23.8992 28.8575 23.3262 29.0679 22.734 29.068H19.386M18.022 19.116V24.165M21.978 19.116V24.165M10.75 14.213H29.25M22.777 14.213V12.433C22.777 12.0352 22.619 11.6536 22.3377 11.3723C22.0564 11.091 21.6748 10.933 21.277 10.933H18.723C18.3252 10.933 17.9436 11.091 17.6623 11.3723C17.381 11.6536 17.223 12.0352 17.223 12.433V14.213H22.777Z" stroke="#C80000" stroke-width="1.5" stroke-linecap="round" stroke-linejoin="round"/>
</svg>
