<svg width="40" height="40" viewBox="0 0 40 40" fill="none" xmlns="http://www.w3.org/2000/svg">
<rect width="40" height="40" rx="4" fill="#E9F9FD"/>
<path d="M12 29.0003H28M13.666 21.1873C13.2396 21.6147 13.0001 22.1937 13 22.7973V26.0003H16.223C16.827 26.0003 17.406 25.7603 17.833 25.3323L27.333 15.8273C27.7592 15.3999 27.9986 14.821 27.9986 14.2173C27.9986 13.6137 27.7592 13.0347 27.333 12.6073L26.395 11.6673C26.1835 11.4557 25.9323 11.2878 25.6558 11.1733C25.3794 11.0588 25.083 10.9999 24.7838 11C24.4846 11.0001 24.1883 11.0592 23.9119 11.1738C23.6355 11.2885 23.3844 11.4566 23.173 11.6683L13.666 21.1873Z" stroke="#0048FF" stroke-width="1.5" stroke-linecap="round" stroke-linejoin="round"/>
</svg>
