<svg width="32" height="32" viewBox="0 0 32 32" fill="none" xmlns="http://www.w3.org/2000/svg">
  <path d="M20 3H8C7.46957 3 6.96086 3.21071 6.58579 3.58579C6.21071 3.96086 6 4.46957 6 5V27C6 27.5304 6.21071 28.0391 6.58579 28.4142C6.96086 28.7893 7.46957 29 8 29H24C24.5304 29 25.0391 28.7893 25.4142 28.4142C25.7893 28.0391 26 27.5304 26 27V9L20 3Z" stroke="#757575" stroke-width="1.5" stroke-linecap="round" stroke-linejoin="round"/>
  <path d="M20 3V9H26" stroke="#757575" stroke-width="1.5" stroke-linecap="round" stroke-linejoin="round"/>
  <path d="M21 18H11" stroke="#757575" stroke-width="1.5" stroke-linecap="round" stroke-linejoin="round"/>
  <path d="M21 23H11" stroke="#757575" stroke-width="1.5" stroke-linecap="round" stroke-linejoin="round"/>
  <path d="M13 13H12H11" stroke="#757575" stroke-width="1.5" stroke-linecap="round" stroke-linejoin="round"/>
</svg>
