<svg width="32" height="32" viewBox="0 0 32 32" fill="none" xmlns="http://www.w3.org/2000/svg">
<g clip-path="url(#clip0_689_31314)">
<path d="M30 23.9999C28.5312 23.9999 27.1146 23.8124 25.75 23.4374C24.3854 23.0624 23.1146 22.5208 21.9375 21.8124C20.7604 21.1041 19.6823 20.2708 18.7031 19.3124C17.724 18.3541 16.8854 17.276 16.1875 16.078C15.4896 14.8801 14.9531 13.6041 14.5781 12.2499C14.2031 10.8958 14.0104 9.47909 14 7.99992C14 6.6145 14.1771 5.25513 14.5312 3.92179C14.8854 2.58846 15.401 1.32284 16.0781 0.12492C14.7448 0.291587 13.4688 0.609295 12.25 1.07804C11.0312 1.54679 9.90104 2.14575 8.85938 2.87492C7.81771 3.60409 6.875 4.44263 6.03125 5.39054C5.1875 6.33846 4.46875 7.37492 3.875 8.49992C3.28125 9.62492 2.81771 10.8176 2.48438 12.078C2.15104 13.3385 1.98958 14.6458 2 15.9999C2 17.4687 2.1875 18.8853 2.5625 20.2499C2.9375 21.6145 3.47917 22.8853 4.1875 24.0624C4.89583 25.2395 5.72917 26.3176 6.6875 27.2968C7.64583 28.276 8.72396 29.1145 9.92188 29.8124C11.1198 30.5103 12.3958 31.0468 13.75 31.4218C15.1042 31.7968 16.5208 31.9895 18 31.9999C19.4375 31.9999 20.8385 31.8124 22.2031 31.4374C23.5677 31.0624 24.849 30.526 26.0469 29.828C27.2448 29.1301 28.349 28.276 29.3594 27.2655C30.3698 26.2551 31.224 25.1249 31.9219 23.8749C31.599 23.9166 31.2812 23.9478 30.9688 23.9687C30.6562 23.9895 30.3333 23.9999 30 23.9999ZM18 29.9999C16.7083 29.9999 15.4688 29.8333 14.2812 29.4999C13.0938 29.1666 11.9792 28.6978 10.9375 28.0937C9.89583 27.4895 8.95312 26.7603 8.10938 25.9062C7.26562 25.052 6.53646 24.1093 5.92188 23.078C5.30729 22.0468 4.83333 20.9322 4.5 19.7343C4.16667 18.5364 4 17.2916 4 15.9999C4 14.5833 4.20833 13.2135 4.625 11.8905C5.04167 10.5676 5.625 9.33846 6.375 8.20304C7.125 7.06763 8.04167 6.05721 9.125 5.17179C10.2083 4.28638 11.401 3.57804 12.7031 3.04679C12.2344 4.66138 12 6.31242 12 7.99992C12 9.52075 12.1823 10.9895 12.5469 12.4062C12.9115 13.8228 13.4323 15.1666 14.1094 16.4374C14.7865 17.7083 15.6042 18.8801 16.5625 19.953C17.5208 21.026 18.5885 21.9739 19.7656 22.7968C20.9427 23.6197 22.2135 24.2916 23.5781 24.8124C24.9427 25.3333 26.3854 25.6874 27.9062 25.8749C26.5729 27.2083 25.0625 28.2291 23.375 28.9374C21.6875 29.6458 19.8958 29.9999 18 29.9999Z" fill="#757575"/>
</g>
<defs>
<clipPath id="clip0_689_31314">
<rect width="32" height="32" fill="white" transform="matrix(-1 0 0 1 32 0)"/>
</clipPath>
</defs>
</svg>
