<svg width="52" height="52" viewBox="0 0 52 52" fill="none" xmlns="http://www.w3.org/2000/svg">
<rect width="51.3567" height="51.3567" rx="25.6783" fill="#FFF7D0"/>
<path fill-rule="evenodd" clip-rule="evenodd" d="M36.0594 32.0105C36.6321 26.52 36.6321 20.9848 36.0594 15.4942C35.8553 13.5363 33.5981 12.5438 32.0176 13.7186L26.7497 17.6345C25.1441 18.8284 23.1964 19.4731 21.1955 19.4731H16.2807C15.3948 19.4731 14.6758 20.1921 14.6758 21.078V26.4268C14.6758 27.3127 15.3948 28.0317 16.2807 28.0317H17.0818L15.9969 32.0825C15.9383 32.3012 15.9587 32.5337 16.0545 32.7389C16.1503 32.9441 16.3154 33.109 16.5208 33.2046L21.2456 35.4091C21.3731 35.4686 21.5121 35.4995 21.6528 35.4996C21.7936 35.4996 21.9326 35.4688 22.0601 35.4093C22.1877 35.3498 22.3006 35.2631 22.391 35.1553C22.4814 35.0474 22.5471 34.9211 22.5834 34.7851L24.205 28.7353C24.2221 28.6711 24.2324 28.6069 24.2358 28.5427C25.1369 28.8547 25.985 29.3024 26.751 29.8703L32.0189 33.7862C33.5981 34.961 35.8578 33.9685 36.0607 32.0105M34.1451 15.692C34.7023 21.0507 34.7023 26.4528 34.1451 31.8115C34.1338 31.9192 34.0942 32.0219 34.0304 32.1093C33.9665 32.1967 33.8807 32.2656 33.7817 32.3092C33.6826 32.3527 33.5738 32.3693 33.4662 32.3572C33.3587 32.3451 33.2563 32.3048 33.1693 32.2404L27.8988 28.3244C25.9613 26.8839 23.6112 26.106 21.1968 26.1058H16.6017V21.399H21.1981C23.6125 21.3988 25.9626 20.6209 27.9001 19.1804L33.168 15.2644C33.255 15.2 33.3574 15.1597 33.465 15.1476C33.5725 15.1355 33.6813 15.1521 33.7804 15.1956C33.8795 15.2392 33.9653 15.3081 34.0291 15.3955C34.0929 15.4829 34.1325 15.5856 34.1438 15.6933M22.387 28.1087C21.9919 28.0571 21.5939 28.0318 21.1955 28.033H19.0745L18.0653 31.8026L21.0183 33.1802L22.3433 28.2371C22.3556 28.1936 22.3702 28.1507 22.387 28.1087Z" fill="#E69D09"/>
</svg>
