<svg width="52" height="52" viewBox="0 0 52 52" fill="none" xmlns="http://www.w3.org/2000/svg">
<rect width="51.3567" height="51.3567" rx="25.6783" fill="#F8F3FF"/>
<path d="M34.6665 25.6782C34.6665 26.0187 34.5312 26.3453 34.2904 26.5861C34.0496 26.8269 33.7231 26.9621 33.3825 26.9621C33.042 26.9621 32.7155 26.8269 32.4747 26.5861C32.2339 26.3453 32.0986 26.0187 32.0986 25.6782C32.0986 25.3377 32.2339 25.0111 32.4747 24.7703C32.7155 24.5296 33.042 24.3943 33.3825 24.3943C33.7231 24.3943 34.0496 24.5296 34.2904 24.7703C34.5312 25.0111 34.6665 25.3377 34.6665 25.6782Z" fill="#5D12FF"/>
<path fill-rule="evenodd" clip-rule="evenodd" d="M23.0384 14.4438H27.0339C29.3937 14.4438 31.2631 14.4438 32.7255 14.6403C34.2303 14.8431 35.4487 15.2694 36.4103 16.2298C37.5967 17.4174 37.9754 19.0069 38.1128 21.0701C38.8536 21.395 39.4134 22.0844 39.4738 22.9575C39.4802 23.0358 39.4802 23.1193 39.4802 23.1963V28.1599C39.4802 28.237 39.4802 28.3204 39.4751 28.3975C39.4134 29.2705 38.8536 29.9613 38.1128 30.2874C37.9754 32.3494 37.5967 33.9388 36.4103 35.1265C35.4487 36.0868 34.2303 36.5131 32.7255 36.716C31.2618 36.9124 29.3937 36.9124 27.0339 36.9124H23.0384C20.6785 36.9124 18.8091 36.9124 17.3467 36.716C15.842 36.5131 14.6236 36.0868 13.6619 35.1265C12.7015 34.1648 12.2753 32.9464 12.0724 31.4416C11.876 29.978 11.876 28.1099 11.876 25.75V25.6062C11.876 23.2464 11.876 21.377 12.0724 19.9146C12.2753 18.4099 12.7015 17.1914 13.6619 16.2298C14.6236 15.2694 15.842 14.8431 17.3467 14.6403C18.8104 14.4438 20.6785 14.4438 23.0384 14.4438ZM36.1651 30.4928H33.6769C30.9229 30.4928 28.5656 28.4026 28.5656 25.6781C28.5656 22.9536 30.9229 20.8634 33.6756 20.8634H36.1638C36.0175 19.1417 35.6875 18.2314 35.0468 17.592C34.5037 17.0489 33.7591 16.7228 32.4674 16.5495C31.1489 16.3723 29.4091 16.3697 26.9607 16.3697H23.109C20.6605 16.3697 18.9221 16.3723 17.601 16.5495C16.3106 16.7228 15.566 17.0489 15.0229 17.592C14.4798 18.1351 14.1549 18.8798 13.9816 20.1701C13.8044 21.49 13.8019 23.2284 13.8019 25.6768C13.8019 28.1253 13.8044 29.865 13.9816 31.1848C14.1549 32.4752 14.481 33.2199 15.0241 33.7629C15.5672 34.306 16.3119 34.6322 17.6035 34.8055C18.9234 34.9827 20.6618 34.9852 23.1102 34.9852H26.962C29.4104 34.9852 31.1501 34.9827 32.47 34.8055C33.7603 34.6322 34.505 34.306 35.0481 33.7629C35.6888 33.1236 36.0187 32.2145 36.1651 30.4915M17.0116 20.5425C17.0116 20.2871 17.1131 20.0421 17.2937 19.8616C17.4743 19.681 17.7192 19.5795 17.9746 19.5795H23.1102C23.3656 19.5795 23.6106 19.681 23.7911 19.8616C23.9717 20.0421 24.0732 20.2871 24.0732 20.5425C24.0732 20.7978 23.9717 21.0428 23.7911 21.2234C23.6106 21.4039 23.3656 21.5054 23.1102 21.5054H17.9746C17.7192 21.5054 17.4743 21.4039 17.2937 21.2234C17.1131 21.0428 17.0116 20.7978 17.0116 20.5425ZM37.1358 22.7893H33.6769C31.8486 22.7893 30.4915 24.149 30.4915 25.6781C30.4915 27.2073 31.8486 28.5669 33.6756 28.5669H37.1653C37.4298 28.5502 37.544 28.3718 37.553 28.2639V23.0923C37.544 22.9845 37.4298 22.806 37.1653 22.7906L37.1358 22.7893Z" fill="#5D12FF"/>
</svg>
