<svg width="52" height="52" viewBox="0 0 52 52" fill="none" xmlns="http://www.w3.org/2000/svg">
<rect width="51.3567" height="51.3567" rx="25.6783" fill="#F2FDF5"/>
<path d="M16.8395 35.9496C16.248 35.9496 15.7545 35.7519 15.3591 35.3565C14.9637 34.961 14.7655 34.4672 14.7646 33.8748V14.765C14.7646 14.5827 14.8263 14.4303 14.9495 14.3079C15.0728 14.1855 15.2256 14.1239 15.4079 14.1231C15.5902 14.1222 15.7426 14.1838 15.865 14.3079C15.9874 14.4321 16.0486 14.5844 16.0486 14.765V33.8761C16.0486 34.073 16.1307 34.254 16.2951 34.4192C16.4594 34.5844 16.6405 34.6666 16.8382 34.6657H35.9493C36.1316 34.6657 36.284 34.7274 36.4064 34.8506C36.5288 34.9739 36.5904 35.1267 36.5912 35.309C36.5921 35.4913 36.5305 35.6436 36.4064 35.766C36.2822 35.8884 36.1299 35.9496 35.9493 35.9496H16.8395ZM20.6912 31.4559C20.425 31.4559 20.202 31.3661 20.0223 31.1863C19.8425 31.0066 19.7527 30.784 19.7527 30.5187V23.0103C19.7527 22.745 19.8425 22.5224 20.0223 22.3427C20.202 22.1629 20.4246 22.0731 20.6899 22.0731H21.2831C21.5767 22.0731 21.8232 22.1728 22.0226 22.3722C22.2212 22.5725 22.3205 22.8207 22.3205 23.1169V30.4211C22.3205 30.7173 22.2208 30.9633 22.0213 31.1593C21.8228 31.3562 21.5767 31.4547 21.2831 31.4547L20.6912 31.4559ZM26.4688 31.4559C26.2026 31.4559 25.9797 31.3661 25.7999 31.1863C25.6202 31.0066 25.5303 30.784 25.5303 30.5187V16.6909C25.5303 16.3973 25.6296 16.1512 25.8282 15.9526C26.0267 15.7541 26.2728 15.6543 26.5664 15.6535H27.1596C27.4249 15.6535 27.6475 15.7434 27.8272 15.9231C28.007 16.1029 28.0968 16.3258 28.0968 16.592V30.4198C28.0968 30.7134 27.998 30.9595 27.8003 31.1581C27.6008 31.3566 27.3543 31.4559 27.0607 31.4559H26.4688ZM32.2465 31.4559C31.9803 31.4559 31.7573 31.3661 31.5775 31.1863C31.3978 31.0066 31.3079 30.784 31.3079 30.5187V28.2461C31.3079 27.9526 31.4072 27.7065 31.6058 27.5079C31.8044 27.3093 32.0505 27.2096 32.344 27.2087H32.9372C33.2026 27.2087 33.4251 27.2986 33.6048 27.4784C33.7846 27.6581 33.8745 27.8811 33.8745 28.1473V30.4198C33.8745 30.7134 33.7756 30.9595 33.5779 31.1581C33.3802 31.3566 33.1336 31.4559 32.8383 31.4559H32.2465Z" fill="#008809"/>
</svg>
