<svg width="52" height="52" viewBox="0 0 52 52" fill="none" xmlns="http://www.w3.org/2000/svg">
<rect width="51.3567" height="51.3567" rx="25.6783" fill="#FFF3F5"/>
<path d="M14.1248 16.5623V16.6265L14.189 16.6137L15.55 17.9746H14.1248V33.3816H30.957L37.0299 39.4546L38.6605 37.824L16.1406 15.2912L13.3417 12.4923L11.6982 14.1229L14.1248 16.5623ZM18.503 22.3528C18.7598 22.1088 18.9524 21.8264 19.0808 21.5054L22.0338 24.4584C21.8925 24.8436 21.8283 25.2544 21.8283 25.6781C21.8283 26.7053 22.2392 27.681 22.9582 28.4C23.6772 29.119 24.653 29.5299 25.6801 29.5299C26.1038 29.5299 26.5146 29.4657 26.8998 29.3245L28.3892 30.8138H19.2605C19.2605 30.1333 18.9909 29.4785 18.503 29.0035C18.028 28.5156 17.3732 28.246 16.6927 28.246V23.1103C17.3732 23.1103 18.028 22.8407 18.503 22.3528ZM32.9856 28.8879L37.2353 33.1249V17.9746H22.0851L24.653 20.5425H32.0997C32.0997 21.2229 32.3693 21.8777 32.8572 22.3528C33.3322 22.8407 33.987 23.1103 34.6675 23.1103V28.246C34.0256 28.246 33.4478 28.4771 32.9856 28.8879Z" fill="#FD4B4B"/>
</svg>
