<svg width="32" height="32" viewBox="0 0 32 32" fill="none" xmlns="http://www.w3.org/2000/svg">
<path d="M8.57258 3.21743C8.74068 3.0168 8.82342 2.75825 8.80303 2.4973C8.78264 2.23635 8.66075 1.9938 8.46353 1.82171C8.26631 1.64962 8.00948 1.56172 7.74817 1.57687C7.48687 1.59203 7.24192 1.70903 7.06591 1.90276L5.34324 3.87609C4.36642 4.99552 3.81423 6.42272 3.78324 7.90809L3.70724 11.5334C3.70453 11.6647 3.72771 11.7953 3.77546 11.9177C3.8232 12.04 3.89458 12.1518 3.98552 12.2466C4.07646 12.3414 4.18518 12.4173 4.30547 12.4701C4.42575 12.5228 4.55526 12.5514 4.68658 12.5541C4.8179 12.5568 4.94847 12.5336 5.07083 12.4859C5.1932 12.4381 5.30496 12.3668 5.39974 12.2758C5.49452 12.1849 5.57045 12.0762 5.62322 11.9559C5.67598 11.8356 5.70453 11.7061 5.70725 11.5748L5.78191 7.95076C5.8033 6.9344 6.18134 5.95791 6.84991 5.19209L8.57258 3.21743Z" fill="#757575"/>
<path fill-rule="evenodd" clip-rule="evenodd" d="M8.31561 10.2667C8.40515 8.84018 9.03497 7.50144 10.0768 6.52298C11.1187 5.54452 12.4943 4.99991 13.9236 5H14.6663V4C14.6663 3.64638 14.8068 3.30724 15.0568 3.05719C15.3068 2.80714 15.646 2.66667 15.9996 2.66667C16.3532 2.66667 16.6924 2.80714 16.9424 3.05719C17.1925 3.30724 17.3329 3.64638 17.3329 4V5H18.0756C19.5049 4.99991 20.8805 5.54452 21.9224 6.52298C22.9643 7.50144 23.5941 8.84018 23.6836 10.2667L23.9783 14.9787C24.0922 16.775 24.6953 18.5059 25.7223 19.984C25.9348 20.2894 26.0646 20.6446 26.0992 21.0151C26.1337 21.3855 26.0718 21.7586 25.9195 22.0981C25.7671 22.4375 25.5295 22.7318 25.2298 22.9522C24.93 23.1726 24.5784 23.3117 24.2089 23.356L19.6663 23.9V25.3333C19.6663 26.3058 19.28 27.2384 18.5923 27.9261C17.9047 28.6137 16.9721 29 15.9996 29C15.0271 29 14.0945 28.6137 13.4069 27.9261C12.7192 27.2384 12.3329 26.3058 12.3329 25.3333V23.9L7.79027 23.3547C7.42107 23.3103 7.06962 23.1712 6.77007 22.9508C6.47052 22.7305 6.23305 22.4364 6.08074 22.0971C5.92843 21.7579 5.86646 21.385 5.90084 21.0148C5.93521 20.6445 6.06478 20.2894 6.27694 19.984C7.30393 18.5059 7.90703 16.775 8.02094 14.9787L8.31561 10.2667ZM13.9236 7C13.003 6.99989 12.117 7.35063 11.446 7.98081C10.7749 8.61099 10.3693 9.47324 10.3116 10.392L10.0183 15.104C9.88118 17.265 9.15542 19.3473 7.91961 21.1253C7.90423 21.1474 7.89483 21.1731 7.89232 21.1999C7.88981 21.2267 7.89428 21.2537 7.90528 21.2782C7.91629 21.3028 7.93346 21.3241 7.95512 21.3401C7.97679 21.356 8.00222 21.3661 8.02894 21.3693L13.0116 21.968C14.9969 22.2053 17.0023 22.2053 18.9876 21.968L23.9703 21.3693C23.997 21.3661 24.0224 21.356 24.0441 21.3401C24.0658 21.3241 24.0829 21.3028 24.0939 21.2782C24.1049 21.2537 24.1094 21.2267 24.1069 21.1999C24.1044 21.1731 24.095 21.1474 24.0796 21.1253C22.8443 19.3471 22.119 17.2649 21.9823 15.104L21.6876 10.392C21.6299 9.47324 21.2243 8.61099 20.5532 7.98081C19.8822 7.35063 18.9962 6.99989 18.0756 7H13.9236ZM15.9996 27C15.0796 27 14.3329 26.2533 14.3329 25.3333V24.3333H17.6663V25.3333C17.6663 26.2533 16.9196 27 15.9996 27Z" fill="#757575"/>
<path d="M23.523 1.8066C23.3233 1.98097 23.201 2.22753 23.183 2.49206C23.165 2.7566 23.2528 3.01745 23.427 3.21727L25.1497 5.1906C25.8181 5.95695 26.1957 6.93395 26.2164 7.9506L26.2924 11.5733C26.2979 11.8385 26.4085 12.0907 26.5999 12.2743C26.7913 12.458 27.0478 12.5581 27.313 12.5526C27.5783 12.5471 27.8304 12.4365 28.0141 12.2451C28.1978 12.0537 28.2979 11.7972 28.2924 11.5319L28.2164 7.90794C28.1854 6.42256 27.6332 4.99536 26.6564 3.87594L24.9337 1.9026C24.7594 1.70285 24.5128 1.58053 24.2483 1.56253C23.9837 1.54453 23.7229 1.63232 23.523 1.8066Z" fill="#757575"/>
<circle cx="21.3333" cy="5.33333" r="5.33333" fill="#FF0000"/>
</svg>
