<svg width="39" height="38" viewBox="0 0 39 38" fill="none" xmlns="http://www.w3.org/2000/svg">
<path d="M3 9.33342H4.848C5.528 9.33342 6.12133 9.79075 6.29733 10.4467L6.808 12.3627M6.808 12.3627C14.2356 12.1526 21.6563 12.9797 28.856 14.8174C27.7573 18.0881 26.452 21.2667 24.9573 24.3334H10M6.808 12.3627L10 24.3334M10 24.3334C8.93913 24.3334 7.92172 24.7548 7.17157 25.505C6.42143 26.2551 6 27.2726 6 28.3334H27M8 32.3334C8 32.5986 7.89464 32.853 7.70711 33.0405C7.51957 33.2281 7.26522 33.3334 7 33.3334C6.73478 33.3334 6.48043 33.2281 6.29289 33.0405C6.10536 32.853 6 32.5986 6 32.3334C6 32.0682 6.10536 31.8138 6.29289 31.6263C6.48043 31.4388 6.73478 31.3334 7 31.3334C7.26522 31.3334 7.51957 31.4388 7.70711 31.6263C7.89464 31.8138 8 32.0682 8 32.3334ZM25 32.3334C25 32.5986 24.8946 32.853 24.7071 33.0405C24.5196 33.2281 24.2652 33.3334 24 33.3334C23.7348 33.3334 23.4804 33.2281 23.2929 33.0405C23.1054 32.853 23 32.5986 23 32.3334C23 32.0682 23.1054 31.8138 23.2929 31.6263C23.4804 31.4388 23.7348 31.3334 24 31.3334C24.2652 31.3334 24.5196 31.4388 24.7071 31.6263C24.8946 31.8138 25 32.0682 25 32.3334Z" stroke="#757575" stroke-width="2" stroke-linecap="round" stroke-linejoin="round"/>
<rect x="20" width="18.6667" height="18.6667" rx="9.33333" fill="#28C9EB"/>
<path d="M29.2194 12.9394C28.7143 12.9394 28.2623 12.8447 27.8633 12.6553C27.4643 12.4634 27.1474 12.2008 26.9126 11.8674C26.6802 11.5341 26.5565 11.1528 26.5413 10.7235H27.905C27.9302 11.0417 28.0679 11.3018 28.3179 11.5038C28.5679 11.7033 28.8684 11.803 29.2194 11.803C29.4946 11.803 29.7396 11.7399 29.9542 11.6136C30.1689 11.4874 30.3381 11.3119 30.4618 11.0871C30.5855 10.8624 30.6461 10.6061 30.6436 10.3182C30.6461 10.0253 30.5843 9.76515 30.458 9.53788C30.3317 9.3106 30.1588 9.13257 29.9391 9.00379C29.7194 8.87247 29.4668 8.80682 29.1815 8.80682C28.9492 8.80429 28.7206 8.84722 28.4959 8.9356C28.2711 9.02399 28.0931 9.14015 27.9618 9.28409L26.6929 9.07576L27.0982 5.07576H31.5982V6.25H28.261L28.0376 8.30682H28.083C28.2269 8.13762 28.4302 7.99747 28.6929 7.88636C28.9555 7.77273 29.2434 7.71591 29.5565 7.71591C30.0262 7.71591 30.4454 7.82702 30.8141 8.04924C31.1828 8.26894 31.4732 8.57197 31.6853 8.95833C31.8974 9.3447 32.0035 9.78661 32.0035 10.2841C32.0035 10.7967 31.8848 11.2538 31.6474 11.6553C31.4126 12.0543 31.0855 12.3687 30.6663 12.5985C30.2497 12.8258 29.7674 12.9394 29.2194 12.9394Z" fill="white"/>
</svg>
