<svg width="32" height="32" viewBox="0 0 32 32" fill="none" xmlns="http://www.w3.org/2000/svg">
<path d="M22.6667 26.6667C24.1394 26.6667 25.3333 25.4728 25.3333 24C25.3333 22.5273 24.1394 21.3333 22.6667 21.3333C21.1939 21.3333 20 22.5273 20 24C20 25.4728 21.1939 26.6667 22.6667 26.6667Z" stroke="#757575" stroke-width="2"/>
<path d="M9.33366 26.6667C10.8064 26.6667 12.0003 25.4728 12.0003 24C12.0003 22.5273 10.8064 21.3333 9.33366 21.3333C7.8609 21.3333 6.66699 22.5273 6.66699 24C6.66699 25.4728 7.8609 26.6667 9.33366 26.6667Z" stroke="#757575" stroke-width="2"/>
<path d="M14.667 22.6667H20.0003M18.0003 9.33334H19.2577C21.0043 9.33334 21.879 9.33334 22.619 9.75334C23.3603 10.172 23.8537 10.9467 24.8417 12.4947C25.535 13.58 26.2603 14.3693 27.283 15.0693C28.3123 15.776 28.803 16.1213 29.0737 16.6747C29.3337 17.2053 29.3337 17.8333 29.3337 19.0893C29.3337 20.7467 29.3337 21.5747 28.8683 22.1013L28.807 22.1667C28.3177 22.6667 27.5457 22.6667 26.0043 22.6667H25.3337" stroke="#757575" stroke-width="2" stroke-linecap="round" stroke-linejoin="round"/>
<path d="M17.3337 9.33334L18.659 12.648C19.3083 14.2707 19.6323 15.0827 20.311 15.5413C20.9883 16 21.8617 16 23.611 16H28.0003M17.3337 9.33334C17.3337 7.44668 17.3337 6.50401 16.7737 5.92001C16.2137 5.33334 15.311 5.33334 13.507 5.33334H6.49366C4.68966 5.33334 3.78699 5.33468 3.22699 5.92001C2.66699 6.50534 2.66699 7.44801 2.66699 9.33334V18.6667C2.66699 20.5533 2.66699 21.496 3.22699 22.08C3.78699 22.6667 4.68966 22.6667 6.49366 22.6667M17.3337 9.33334V22.6667H11.595" stroke="#757575" stroke-width="2" stroke-linecap="round" stroke-linejoin="round"/>
</svg>
