<svg width="22" height="22" viewBox="0 0 22 22" fill="none" xmlns="http://www.w3.org/2000/svg">
<g clip-path="url(#clip0_689_31416)">
<path d="M10.6667 2.66666C7.92 2.66666 5.76 4.75333 5.458 7.41666C4.87723 7.51061 4.3326 7.75966 3.88165 8.13751C3.4307 8.51535 3.09016 9.00797 2.896 9.56333C1.256 10.036 0 11.4987 0 13.3333C0 15.5493 1.784 17.3333 4 17.3333H17.3333C19.5493 17.3333 21.3333 15.5493 21.3333 13.3333C21.3333 12.16 20.7633 11.1093 19.9373 10.3747C19.7827 8.032 17.914 6.16266 15.5627 6.04133C14.76 4.08866 12.9187 2.66666 10.6667 2.66666ZM10.6667 4C12.508 4 13.98 5.18 14.5 6.85333L14.6467 7.33333H15.3333C17.17 7.33333 18.6667 8.83 18.6667 10.6667V11L18.9373 11.2087C19.264 11.459 19.5294 11.7804 19.7135 12.1485C19.8977 12.5166 19.9956 12.9218 20 13.3333C20 14.8507 18.8507 16 17.3333 16H4C2.48267 16 1.33333 14.8507 1.33333 13.3333C1.33333 11.9867 2.3 10.9413 3.52 10.7293L3.958 10.646L4.04133 10.2073C4.24133 9.30933 5.03733 8.66666 6 8.66666H6.66667V8C6.66667 5.75333 8.42 4 10.6667 4ZM10.6667 7.72933L10.1867 8.18733L7.52 10.854L8.48 11.814L10 10.2913V14.6667H11.3333V10.2913L12.8533 11.8127L13.8133 10.8527L11.1467 8.186L10.6667 7.72933Z" fill="black"/>
</g>
<defs>
<clipPath id="clip0_689_31416">
<rect width="21.3333" height="21.3333" fill="white"/>
</clipPath>
</defs>
</svg>
