<svg width="32" height="32" viewBox="0 0 32 32" fill="none" xmlns="http://www.w3.org/2000/svg">
<path d="M6.82898 27.3333C6.21564 27.3333 5.7032 27.128 5.29164 26.7173C4.88009 26.3067 4.67475 25.7942 4.67564 25.18V14.4773C4.11298 14.0622 3.70142 13.5178 3.44098 12.844C3.18053 12.1702 3.17475 11.4515 3.42364 10.688L4.72098 6.41066C4.89875 5.86666 5.18542 5.43999 5.58098 5.13066C5.97742 4.82132 6.4672 4.66666 7.05031 4.66666H24.917C25.4992 4.66666 25.9872 4.81155 26.381 5.10132C26.7739 5.3911 27.0619 5.81021 27.245 6.35866L28.593 10.6867C28.8428 11.4511 28.8374 12.176 28.577 12.8613C28.3165 13.5467 27.905 14.1022 27.3423 14.528V25.1787C27.3423 25.7929 27.1365 26.3053 26.725 26.716C26.3134 27.1267 25.8014 27.3324 25.189 27.3333H6.82898ZM18.9423 14C19.7983 14 20.4374 13.76 20.8596 13.28C21.2819 12.8009 21.4596 12.3058 21.393 11.7947L20.5076 5.99999H16.677V11.6C16.677 12.2551 16.901 12.8187 17.349 13.2907C17.797 13.7635 18.3272 14 18.9423 14ZM12.9436 14C13.6601 14 14.2392 13.7635 14.681 13.2907C15.1228 12.8178 15.3436 12.2542 15.3436 11.6V5.99999H11.5116L10.6236 11.8973C10.5694 12.3115 10.7503 12.7653 11.1663 13.2587C11.5823 13.752 12.1756 13.9991 12.9436 14ZM7.00898 14C7.59653 14 8.09609 13.8 8.50764 13.4C8.9192 13 9.1752 12.5009 9.27564 11.9027L10.1116 5.99999H7.05031C6.75964 5.99999 6.52853 6.06399 6.35698 6.19199C6.18542 6.31999 6.05742 6.51243 5.97298 6.76932L4.74231 10.98C4.52364 11.6804 4.61698 12.3591 5.02231 13.016C5.42764 13.6729 6.08986 14.0009 7.00898 14ZM25.009 14C25.8072 14 26.4445 13.6889 26.921 13.0667C27.3983 12.4444 27.5165 11.7489 27.2756 10.98L25.9783 6.71866C25.893 6.46177 25.7645 6.27777 25.593 6.16666C25.4214 6.05555 25.1908 5.99999 24.901 5.99999H21.9063L22.7423 11.9027C22.8428 12.5009 23.0988 13 23.5103 13.4C23.9219 13.8 24.4214 14 25.009 14ZM6.82898 26H25.189C25.4281 26 25.6245 25.9231 25.7783 25.7693C25.9321 25.6155 26.009 25.4191 26.009 25.18V15.164C25.8294 15.2262 25.6588 15.2698 25.497 15.2947C25.3361 15.3204 25.1734 15.3333 25.009 15.3333C24.409 15.3333 23.881 15.2164 23.425 14.9827C22.969 14.7489 22.5361 14.3755 22.1263 13.8627C21.7779 14.2964 21.3481 14.6498 20.837 14.9227C20.3259 15.1955 19.7045 15.3324 18.973 15.3333C18.4414 15.3333 17.9356 15.2093 17.4556 14.9613C16.9756 14.7133 16.4934 14.3467 16.009 13.8613C15.5628 14.3467 15.0681 14.7133 14.525 14.9613C13.9828 15.2093 13.4654 15.3333 12.973 15.3333C12.4139 15.3333 11.869 15.2267 11.3383 15.0133C10.8076 14.8 10.3423 14.416 9.94231 13.8613C9.2872 14.5164 8.71475 14.9253 8.22498 15.088C7.73609 15.2515 7.33075 15.3333 7.00898 15.3333C6.84453 15.3333 6.6792 15.3204 6.51298 15.2947C6.34586 15.2689 6.17786 15.2253 6.00898 15.164V25.1787C6.00898 25.4187 6.08586 25.6155 6.23964 25.7693C6.39342 25.9231 6.58986 26 6.82898 26Z" fill="#757575"/>
</svg>
