<svg width="32" height="32" viewBox="0 0 32 32" fill="none" xmlns="http://www.w3.org/2000/svg">
<path d="M25.9798 26.872L17.6305 18.5226C16.9638 19.0906 16.1971 19.5302 15.3305 19.8413C14.4638 20.1524 13.5927 20.308 12.7171 20.308C10.582 20.308 8.77493 19.5689 7.29582 18.0906C5.8167 16.6124 5.07715 14.8058 5.07715 12.6706C5.07715 10.5355 5.81581 8.72798 7.29315 7.24798C8.77048 5.76798 10.5767 5.02709 12.7118 5.02531C14.8469 5.02353 16.6549 5.76309 18.1358 7.24398C19.6167 8.72487 20.3571 10.5324 20.3571 12.6666C20.3571 13.5929 20.1931 14.4893 19.8651 15.356C19.5371 16.2226 19.106 16.964 18.5718 17.58L26.9211 25.928L25.9798 26.872ZM12.7185 18.9733C14.4874 18.9733 15.9807 18.3644 17.1985 17.1466C18.4163 15.9289 19.0251 14.4351 19.0251 12.6653C19.0251 10.8955 18.4163 9.4022 17.1985 8.18531C15.9807 6.96842 14.4874 6.35953 12.7185 6.35865C10.9496 6.35776 9.45581 6.96665 8.23715 8.18531C7.01848 9.40398 6.40959 10.8973 6.41048 12.6653C6.41137 14.4333 7.02026 15.9266 8.23715 17.1453C9.45404 18.364 10.9474 18.9729 12.7171 18.972" fill="#757575"/>
</svg>
