<svg width="32" height="32" viewBox="0 0 32 32" fill="none" xmlns="http://www.w3.org/2000/svg">
<path d="M16.0003 2.66669C23.3643 2.66669 29.3337 8.63602 29.3337 16C29.3337 23.364 23.3643 29.3334 16.0003 29.3334C8.63633 29.3334 2.66699 23.364 2.66699 16C2.66699 8.63602 8.63633 2.66669 16.0003 2.66669ZM16.0003 5.33335C13.1713 5.33335 10.4582 6.45716 8.45785 8.45755C6.45747 10.4579 5.33366 13.171 5.33366 16C5.33366 18.829 6.45747 21.5421 8.45785 23.5425C10.4582 25.5429 13.1713 26.6667 16.0003 26.6667C18.8293 26.6667 21.5424 25.5429 23.5428 23.5425C25.5432 21.5421 26.667 18.829 26.667 16C26.667 13.171 25.5432 10.4579 23.5428 8.45755C21.5424 6.45716 18.8293 5.33335 16.0003 5.33335ZM16.0003 21.3334C16.3539 21.3334 16.6931 21.4738 16.9431 21.7239C17.1932 21.9739 17.3337 22.3131 17.3337 22.6667C17.3337 23.0203 17.1932 23.3594 16.9431 23.6095C16.6931 23.8595 16.3539 24 16.0003 24C15.6467 24 15.3076 23.8595 15.0575 23.6095C14.8075 23.3594 14.667 23.0203 14.667 22.6667C14.667 22.3131 14.8075 21.9739 15.0575 21.7239C15.3076 21.4738 15.6467 21.3334 16.0003 21.3334ZM16.0003 8.66669C17.1234 8.66672 18.2113 9.05783 19.0774 9.77282C19.9434 10.4878 20.5334 11.4821 20.7461 12.5848C20.9587 13.6875 20.7807 14.8299 20.2427 15.8156C19.7047 16.8014 18.8401 17.569 17.7977 17.9867C17.6432 18.0435 17.5041 18.1352 17.391 18.2547C17.3323 18.3214 17.323 18.4067 17.3243 18.4947L17.3337 18.6667C17.3333 19.0065 17.2032 19.3334 16.9699 19.5805C16.7366 19.8276 16.4177 19.9763 16.0785 19.9962C15.7392 20.0162 15.4052 19.9058 15.1445 19.6877C14.8839 19.4695 14.7165 19.1601 14.6763 18.8227L14.667 18.6667V18.3334C14.667 16.796 15.907 15.8734 16.8057 15.512C17.1714 15.366 17.4905 15.123 17.7286 14.8093C17.9667 14.4956 18.1148 14.123 18.1571 13.7314C18.1994 13.3399 18.1342 12.9442 17.9686 12.5869C17.803 12.2296 17.5432 11.9241 17.217 11.7033C16.8909 11.4825 16.5108 11.3548 16.1175 11.3337C15.7243 11.3127 15.3327 11.3991 14.9848 11.5838C14.637 11.7686 14.3461 12.0445 14.1433 12.3821C13.9404 12.7197 13.8334 13.1062 13.8337 13.5C13.8337 13.8536 13.6932 14.1928 13.4431 14.4428C13.1931 14.6929 12.8539 14.8334 12.5003 14.8334C12.1467 14.8334 11.8076 14.6929 11.5575 14.4428C11.3075 14.1928 11.167 13.8536 11.167 13.5C11.167 12.2181 11.6762 10.9888 12.5826 10.0823C13.4891 9.17591 14.7184 8.66669 16.0003 8.66669Z" fill="#757575"/>
</svg>
