<svg width="32" height="32" viewBox="0 0 32 32" fill="none" xmlns="http://www.w3.org/2000/svg">
<path d="M27.72 8.70751L16.72 2.68501C16.4992 2.56422 16.2516 2.50092 16 2.50092C15.7484 2.50092 15.5008 2.56422 15.28 2.68501L4.28 8.70751C4.04402 8.83663 3.84711 9.02682 3.70988 9.25817C3.57265 9.48953 3.50016 9.75352 3.5 10.0225V21.9775C3.50016 22.2465 3.57265 22.5105 3.70988 22.7419C3.84711 22.9732 4.04402 23.1634 4.28 23.2925L15.28 29.315C15.5006 29.4364 15.7482 29.5 16 29.5C16.2518 29.5 16.4994 29.4364 16.72 29.315L27.72 23.2925C27.956 23.1634 28.1529 22.9732 28.2901 22.7419C28.4273 22.5105 28.4998 22.2465 28.5 21.9775V10.0225C28.4998 9.75352 28.4273 9.48953 28.2901 9.25817C28.1529 9.02682 27.956 8.83663 27.72 8.70751ZM15.76 3.56251C15.8334 3.52157 15.916 3.50008 16 3.50008C16.084 3.50008 16.1666 3.52157 16.24 3.56251L27.0837 9.50001L22.3125 12.1113C22.2899 12.0925 22.2656 12.0758 22.24 12.0613L11.24 6.03876L15.76 3.56251ZM16 15.5625L4.91625 9.50001L10.195 6.60876L21.2787 12.6763L16 15.5625ZM4.76 22.4125C4.68147 22.3695 4.61591 22.3063 4.57017 22.2293C4.52444 22.1524 4.5002 22.0645 4.5 21.975V10.4113L15.5 16.4313V28.295L4.76 22.4125ZM27.24 22.4125L16.5 28.2875V16.4313L21.5 13.695V19C21.5 19.1326 21.5527 19.2598 21.6464 19.3536C21.7402 19.4473 21.8674 19.5 22 19.5C22.1326 19.5 22.2598 19.4473 22.3536 19.3536C22.4473 19.2598 22.5 19.1326 22.5 19V13.1475L27.5 10.4113V21.9775C27.4998 22.067 27.4756 22.1549 27.4298 22.2318C27.3841 22.3088 27.3185 22.372 27.24 22.415V22.4125Z" fill="#757575"/>
</svg>
