<svg width="48" height="48" viewBox="0 0 48 48" fill="none" xmlns="http://www.w3.org/2000/svg">
<g clip-path="url(#clip0_821_33777)">
<path d="M24.0111 0.363647C14.1416 0.363647 11.2551 0.373829 10.694 0.420373C8.66865 0.588732 7.40832 0.907631 6.03527 1.59125C4.97712 2.11669 4.1426 2.72576 3.31899 3.57955C1.81904 5.13659 0.909972 7.05217 0.580891 9.3292C0.420896 10.4346 0.374352 10.6601 0.364897 16.3064C0.361261 18.1886 0.364897 20.6656 0.364897 23.988C0.364897 33.8495 0.375806 36.7331 0.423077 37.2931C0.586709 39.2639 0.89579 40.5039 1.55032 41.8602C2.80119 44.4565 5.19021 46.4055 8.00467 47.1328C8.97918 47.3837 10.0555 47.5219 11.4373 47.5873C12.0227 47.6128 17.9898 47.6309 23.9605 47.6309C29.9313 47.6309 35.902 47.6237 36.4729 47.5946C38.0728 47.5193 39.0019 47.3946 40.0291 47.1291C42.8618 46.3983 45.2072 44.4783 46.4835 41.8457C47.1253 40.5221 47.4507 39.2348 47.598 37.3669C47.63 36.9596 47.6435 30.4664 47.6435 23.9818C47.6435 17.4962 47.6289 11.015 47.5969 10.6077C47.4478 8.70958 47.1224 7.43325 46.4599 6.0842C45.9162 4.97987 45.3126 4.15517 44.4363 3.31192C42.8723 1.81815 40.9597 0.909086 38.6805 0.580368C37.5761 0.420737 37.3561 0.373465 31.7054 0.363647H24.0111Z" fill="url(#paint0_radial_821_33777)"/>
<path d="M24.0111 0.363647C14.1416 0.363647 11.2551 0.373829 10.694 0.420373C8.66865 0.588732 7.40832 0.907631 6.03527 1.59125C4.97712 2.11669 4.1426 2.72576 3.31899 3.57955C1.81904 5.13659 0.909972 7.05217 0.580891 9.3292C0.420896 10.4346 0.374352 10.6601 0.364897 16.3064C0.361261 18.1886 0.364897 20.6656 0.364897 23.988C0.364897 33.8495 0.375806 36.7331 0.423077 37.2931C0.586709 39.2639 0.89579 40.5039 1.55032 41.8602C2.80119 44.4565 5.19021 46.4055 8.00467 47.1328C8.97918 47.3837 10.0555 47.5219 11.4373 47.5873C12.0227 47.6128 17.9898 47.6309 23.9605 47.6309C29.9313 47.6309 35.902 47.6237 36.4729 47.5946C38.0728 47.5193 39.0019 47.3946 40.0291 47.1291C42.8618 46.3983 45.2072 44.4783 46.4835 41.8457C47.1253 40.5221 47.4507 39.2348 47.598 37.3669C47.63 36.9596 47.6435 30.4664 47.6435 23.9818C47.6435 17.4962 47.6289 11.015 47.5969 10.6077C47.4478 8.70958 47.1224 7.43325 46.4599 6.0842C45.9162 4.97987 45.3126 4.15517 44.4363 3.31192C42.8723 1.81815 40.9597 0.909086 38.6805 0.580368C37.5761 0.420737 37.3561 0.373465 31.7054 0.363647H24.0111Z" fill="url(#paint1_radial_821_33777)"/>
<path d="M24.0004 6.54547C19.2602 6.54547 18.6653 6.5662 16.8035 6.65092C14.9454 6.73601 13.6771 7.03018 12.5673 7.46181C11.4193 7.90761 10.4455 8.50396 9.47538 9.47447C8.5045 10.4446 7.90815 11.4184 7.46089 12.566C7.02818 13.6762 6.73364 14.9449 6.65001 16.8023C6.56674 18.664 6.54492 19.2593 6.54492 23.9995C6.54492 28.7397 6.56601 29.3328 6.65037 31.1945C6.73583 33.0527 7.03 34.321 7.46126 35.4308C7.90743 36.5787 8.50377 37.5525 9.47429 38.5227C10.4441 39.4936 11.4179 40.0914 12.5651 40.5372C13.6756 40.9688 14.9443 41.263 16.8021 41.3481C18.6638 41.4328 19.2584 41.4535 23.9982 41.4535C28.7388 41.4535 29.3319 41.4328 31.1936 41.3481C33.0518 41.263 34.3215 40.9688 35.432 40.5372C36.5796 40.0914 37.552 39.4936 38.5218 38.5227C39.4927 37.5525 40.089 36.5787 40.5363 35.4311C40.9653 34.321 41.2599 33.0523 41.3471 31.1949C41.4308 29.3331 41.4526 28.7397 41.4526 23.9995C41.4526 19.2593 41.4308 18.6644 41.3471 16.8026C41.2599 14.9445 40.9653 13.6762 40.5363 12.5664C40.089 11.4184 39.4927 10.4446 38.5218 9.47447C37.5509 8.50359 36.58 7.90725 35.431 7.46181C34.3183 7.03018 33.0492 6.73601 31.1911 6.65092C29.3293 6.5662 28.7366 6.54547 23.9949 6.54547H24.0004ZM22.4346 9.69083C22.8993 9.6901 23.4179 9.69083 24.0004 9.69083C28.6606 9.69083 29.213 9.70756 31.0533 9.79119C32.755 9.86901 33.6786 10.1534 34.2939 10.3923C35.1084 10.7086 35.6891 11.0868 36.2997 11.6977C36.9105 12.3086 37.2887 12.8904 37.6058 13.7049C37.8447 14.3194 38.1294 15.243 38.2069 16.9448C38.2905 18.7847 38.3087 19.3374 38.3087 23.9955C38.3087 28.6535 38.2905 29.2062 38.2069 31.0462C38.1291 32.748 37.8447 33.6716 37.6058 34.2861C37.2894 35.1006 36.9105 35.6806 36.2997 36.2911C35.6888 36.902 35.1088 37.2802 34.2939 37.5965C33.6794 37.8365 32.755 38.1202 31.0533 38.198C29.2133 38.2816 28.6606 38.2998 24.0004 38.2998C19.3398 38.2998 18.7875 38.2816 16.9475 38.198C15.2457 38.1194 14.3221 37.8351 13.7065 37.5962C12.892 37.2798 12.3102 36.9016 11.6993 36.2908C11.0884 35.6799 10.7103 35.0995 10.3932 34.2846C10.1543 33.6701 9.86955 32.7465 9.7921 31.0447C9.70846 29.2048 9.69174 28.6521 9.69174 23.9911C9.69174 19.3302 9.70846 18.7804 9.7921 16.9404C9.86991 15.2387 10.1543 14.3151 10.3932 13.6998C10.7095 12.8853 11.0884 12.3035 11.6993 11.6926C12.3102 11.0817 12.892 10.7035 13.7065 10.3864C14.3218 10.1465 15.2457 9.86283 16.9475 9.78465C18.5576 9.71192 19.1816 9.6901 22.4346 9.68647V9.69083ZM33.3172 12.5889C32.1609 12.5889 31.2227 13.526 31.2227 14.6827C31.2227 15.839 32.1609 16.7772 33.3172 16.7772C34.4735 16.7772 35.4117 15.839 35.4117 14.6827C35.4117 13.5264 34.4735 12.5882 33.3172 12.5882V12.5889ZM24.0004 15.0361C19.0504 15.0361 15.037 19.0495 15.037 23.9995C15.037 28.9495 19.0504 32.961 24.0004 32.961C28.9504 32.961 32.9623 28.9495 32.9623 23.9995C32.9623 19.0495 28.9504 15.0361 24.0004 15.0361ZM24.0004 18.1815C27.2134 18.1815 29.8184 20.7861 29.8184 23.9995C29.8184 27.2125 27.2134 29.8175 24.0004 29.8175C20.787 29.8175 18.1824 27.2125 18.1824 23.9995C18.1824 20.7861 20.787 18.1815 24.0004 18.1815Z" fill="white"/>
</g>
<defs>
<radialGradient id="paint0_radial_821_33777" cx="0" cy="0" r="1" gradientUnits="userSpaceOnUse" gradientTransform="translate(12.9221 51.2715) rotate(-90) scale(46.8454 43.5818)">
<stop stop-color="#FFDD55"/>
<stop offset="0.1" stop-color="#FFDD55"/>
<stop offset="0.5" stop-color="#FF543E"/>
<stop offset="1" stop-color="#C837AB"/>
</radialGradient>
<radialGradient id="paint1_radial_821_33777" cx="0" cy="0" r="1" gradientTransform="matrix(4.11118 20.5328 -84.6582 16.951 -7.5564 3.7687)" gradientUnits="userSpaceOnUse">
<stop stop-color="#3771C8"/>
<stop offset="0.128" stop-color="#3771C8"/>
<stop offset="1" stop-color="#6600FF" stop-opacity="0"/>
</radialGradient>
<clipPath id="clip0_821_33777">
<rect width="48" height="47.9986" fill="white"/>
</clipPath>
</defs>
</svg>
