<svg width="48" height="48" viewBox="0 0 48 48" fill="none" xmlns="http://www.w3.org/2000/svg">
<g clip-path="url(#clip0_821_33785)">
<path d="M34.4146 17.2903C37.5073 19.5 41.296 20.8001 45.388 20.8001V12.9299C44.6136 12.93 43.8412 12.8493 43.0835 12.6889V18.8839C38.9919 18.8839 35.2036 17.5837 32.1101 15.3743V31.435C32.1101 39.4694 25.5936 45.9822 17.5556 45.9822C14.5564 45.9822 11.7688 45.0759 9.45312 43.5217C12.0961 46.2226 15.7819 47.8982 19.8596 47.8982C27.8981 47.8982 34.4149 41.3855 34.4149 33.3508V17.2903H34.4146ZM37.2575 9.35026C35.6769 7.6244 34.6392 5.39404 34.4146 2.92829V1.91602H32.2308C32.7805 5.04999 34.6554 7.72747 37.2575 9.35026ZM14.5372 37.3563C13.6541 36.199 13.1769 34.7834 13.179 33.3277C13.179 29.6531 16.1596 26.6737 19.8369 26.6737C20.5222 26.6735 21.2034 26.7784 21.8565 26.9855V18.9394C21.0933 18.8349 20.323 18.7905 19.553 18.8068V25.0694C18.8994 24.8623 18.2179 24.7571 17.5324 24.7578C13.8552 24.7578 10.8747 27.7369 10.8747 31.412C10.8747 34.0106 12.3645 36.2603 14.5372 37.3563Z" fill="#FF004F"/>
<path d="M32.1099 15.3741C35.2034 17.5836 38.9916 18.8837 43.0833 18.8837V12.6887C40.7994 12.2025 38.7775 11.0096 37.2572 9.35026C34.655 7.7273 32.7802 5.04982 32.2305 1.91602H26.4942V33.3504C26.4812 37.015 23.5057 39.9823 19.8364 39.9823C17.6741 39.9823 15.7531 38.9521 14.5365 37.3563C12.364 36.2603 10.8742 34.0104 10.8742 31.4122C10.8742 27.7374 13.8546 24.7579 17.5319 24.7579C18.2364 24.7579 18.9155 24.8676 19.5525 25.0696V18.8069C11.6556 18.97 5.30469 25.4191 5.30469 33.3506C5.30469 37.3099 6.88622 40.8992 9.45307 43.5218C11.7687 45.0759 14.5564 45.9823 17.5555 45.9823C25.5937 45.9823 32.1101 39.4693 32.1101 31.435V15.3741H32.1099Z" fill="black"/>
<path d="M43.083 12.6886V11.0135C41.0234 11.0167 39.0043 10.4402 37.2569 9.34997C38.8037 11.0426 40.8406 12.2098 43.083 12.6886ZM32.2302 1.91589C32.1778 1.61638 32.1375 1.3149 32.1095 1.01227V0H24.1892V31.4347C24.1765 35.0989 21.2012 38.0661 17.5315 38.0661C16.4541 38.0661 15.4369 37.8105 14.5361 37.3563C15.7527 38.952 17.6737 39.982 19.836 39.982C23.505 39.982 26.481 37.0151 26.4939 33.3505V1.91589H32.2302ZM19.5524 18.8068V17.0236C18.8906 16.9331 18.2234 16.8878 17.5553 16.8881C9.51649 16.8879 3 23.401 3 31.4347C3 36.4715 5.5611 40.9103 9.45288 43.5214C6.88603 40.899 5.30449 37.3095 5.30449 33.3503C5.30449 25.419 11.6553 18.9699 19.5524 18.8068Z" fill="#00F2EA"/>
</g>
<defs>
<clipPath id="clip0_821_33785">
<rect width="48" height="48" fill="white"/>
</clipPath>
</defs>
</svg>
