<svg width="48" height="48" viewBox="0 0 48 48" fill="none" xmlns="http://www.w3.org/2000/svg">
<g clip-path="url(#clip0_821_33751)">
<path d="M48 24.501C48 11.2462 37.2548 0.501007 24 0.501007C10.7452 0.501007 0 11.2462 0 24.501C0 35.7565 7.74863 45.2007 18.2022 47.7942V31.835H13.2532V24.501H18.2022V21.3408C18.2022 13.1719 21.8989 9.3857 29.9188 9.3857C31.4392 9.3857 34.0628 9.68378 35.1361 9.98196V16.6303C34.5696 16.5707 33.5858 16.5409 32.3634 16.5409C28.4281 16.5409 26.9075 18.0316 26.9075 21.9073V24.501H34.7468L33.4001 31.835H26.9075V48.3252C38.791 46.8899 48 36.7715 48 24.501Z" fill="#0866FF"/>
<path d="M33.3989 31.835L34.7457 24.501H26.9064V21.9072C26.9064 18.0315 28.4269 16.5409 32.3622 16.5409C33.5845 16.5409 34.5684 16.5706 35.1348 16.6302V9.98197C34.0616 9.68379 31.438 9.38561 29.9175 9.38561C21.8978 9.38561 18.2009 13.1719 18.2009 21.3408V24.501H13.252V31.835H18.2009V47.7942C20.0579 48.2548 21.9995 48.501 23.9988 48.501C24.9831 48.501 25.9531 48.4403 26.9064 48.3252V31.835H33.3989Z" fill="white"/>
</g>
<defs>
<clipPath id="clip0_821_33751">
<rect width="48" height="48" fill="white"/>
</clipPath>
</defs>
</svg>
