<svg width="32" height="32" viewBox="0 0 32 32" fill="none" xmlns="http://www.w3.org/2000/svg">
<path fill-rule="evenodd" clip-rule="evenodd" d="M14.9838 3.73201C14.1651 3.84001 13.1544 4.07201 11.7171 4.40401L10.0784 4.78267C8.8651 5.06267 8.02777 5.25734 7.3891 5.47601C6.77177 5.68801 6.42244 5.89601 6.15977 6.16001C5.89577 6.42267 5.68777 6.77201 5.47577 7.38934C5.2571 8.02801 5.06244 8.86401 4.78244 10.0787L4.40377 11.716C4.07177 13.1547 3.83977 14.1653 3.73177 14.984C3.6251 15.7813 3.65044 16.3213 3.79177 16.812C3.93177 17.3027 4.1971 17.7733 4.7091 18.3933C5.23577 19.0307 5.96777 19.7653 7.01177 20.8093L9.45177 23.2493C11.2638 25.0613 12.5531 26.348 13.6624 27.1933C14.7478 28.0227 15.5424 28.3333 16.3491 28.3333C17.1558 28.3333 17.9504 28.0227 19.0371 27.1933C20.1451 26.348 21.4358 25.06 23.2478 23.248C25.0611 21.4347 26.3478 20.1453 27.1944 19.0373C28.0211 17.9507 28.3331 17.1573 28.3331 16.3493C28.3331 15.5427 28.0224 14.7493 27.1931 13.6627C26.3478 12.5533 25.0598 11.2627 23.2478 9.45067L20.8078 7.01067C19.7651 5.96801 19.0304 5.23601 18.3944 4.70934C17.7731 4.19734 17.3024 3.93201 16.8118 3.79201C16.3211 3.65067 15.7811 3.62667 14.9851 3.73201M14.7238 1.74934C15.6798 1.62267 16.5184 1.62667 17.3638 1.86934C18.2104 2.11201 18.9238 2.55334 19.6678 3.16667C20.3878 3.76134 21.1878 4.56134 22.1891 5.56267L24.7171 8.09067C26.4638 9.83734 27.8478 11.2213 28.7838 12.4507C29.7491 13.7133 30.3344 14.9293 30.3344 16.3493C30.3344 17.7707 29.7491 18.9867 28.7851 20.2493C27.8478 21.4787 26.4651 22.8627 24.7171 24.6093L24.6104 24.716C22.8638 26.4627 21.4798 27.8467 20.2504 28.7827C18.9878 29.748 17.7704 30.3333 16.3504 30.3333C14.9304 30.3333 13.7144 29.748 12.4504 28.784C11.2224 27.8467 9.83844 26.464 8.09044 24.716L5.56377 22.1867C4.56377 21.1867 3.76244 20.3853 3.16777 19.6667C2.55444 18.9213 2.1131 18.208 1.87044 17.3627C1.62777 16.516 1.62377 15.6773 1.75044 14.7213C1.87177 13.796 2.12777 12.692 2.4451 11.3133L2.8451 9.57601C3.11177 8.42534 3.32777 7.48667 3.5851 6.73867C3.85444 5.95601 4.19177 5.29867 4.74644 4.74401C5.3011 4.18934 5.95977 3.85067 6.7411 3.58401C7.4891 3.32534 8.42777 3.10934 9.57844 2.84401L11.3158 2.44401C12.6944 2.12401 13.7984 1.87067 14.7238 1.74801M12.6531 10.66C12.3405 10.3474 11.9165 10.1718 11.4744 10.1718C11.0324 10.1718 10.6084 10.3474 10.2958 10.66C9.98317 10.9726 9.80755 11.3966 9.80755 11.8387C9.80755 12.2808 9.98317 12.7047 10.2958 13.0173C10.4506 13.1721 10.6343 13.2949 10.8365 13.3787C11.0388 13.4624 11.2555 13.5056 11.4744 13.5056C11.6933 13.5056 11.9101 13.4624 12.1123 13.3787C12.3146 13.2949 12.4983 13.1721 12.6531 13.0173C12.8079 12.8626 12.9307 12.6788 13.0144 12.4766C13.0982 12.2743 13.1413 12.0576 13.1413 11.8387C13.1413 11.6198 13.0982 11.403 13.0144 11.2008C12.9307 10.9985 12.8079 10.8148 12.6531 10.66ZM8.88244 9.24667C9.22208 8.90245 9.62646 8.6288 10.0723 8.4415C10.5181 8.2542 10.9966 8.15694 11.4802 8.15532C11.9638 8.1537 12.4429 8.24775 12.89 8.43206C13.3371 8.61637 13.7433 8.8873 14.0852 9.22924C14.4271 9.57119 14.6981 9.97739 14.8824 10.4245C15.0667 10.8716 15.1607 11.3507 15.1591 11.8343C15.1575 12.3178 15.0602 12.7963 14.8729 13.2421C14.6856 13.688 14.412 14.0924 14.0678 14.432C13.38 15.1198 12.4471 15.5062 11.4744 15.5062C10.5017 15.5062 9.5689 15.1198 8.8811 14.432C8.19331 13.7442 7.80691 12.8114 7.80691 11.8387C7.80691 10.866 8.19331 9.93313 8.8811 9.24534M25.3998 14.6533C25.587 14.8408 25.6922 15.095 25.6922 15.36C25.6922 15.625 25.587 15.8792 25.3998 16.0667L16.0944 25.3733C15.9049 25.55 15.6541 25.6461 15.3951 25.6416C15.136 25.637 14.8888 25.532 14.7056 25.3488C14.5224 25.1656 14.4174 24.9184 14.4129 24.6594C14.4083 24.4003 14.5045 24.1496 14.6811 23.96L23.9851 14.6533C24.078 14.5604 24.1882 14.4867 24.3096 14.4364C24.431 14.3861 24.5611 14.3602 24.6924 14.3602C24.8238 14.3602 24.9539 14.3861 25.0753 14.4364C25.1966 14.4867 25.3069 14.5604 25.3998 14.6533Z" fill="#757575"/>
</svg>
