<svg width="32" height="32" viewBox="0 0 32 32" fill="none" xmlns="http://www.w3.org/2000/svg">
<path d="M26.5325 16.8798C26.3188 16.6365 26.2009 16.3237 26.2009 15.9998C26.2009 15.6759 26.3188 15.3631 26.5325 15.1198L28.2392 13.1998C28.4273 12.99 28.5441 12.7261 28.5728 12.4458C28.6015 12.1655 28.5408 11.8834 28.3992 11.6398L25.7325 7.02645C25.5924 6.78314 25.3791 6.59028 25.1229 6.47536C24.8667 6.36044 24.5808 6.32932 24.3059 6.38645L21.7992 6.89311C21.4803 6.95902 21.1482 6.9059 20.8657 6.74378C20.5832 6.58166 20.3699 6.32176 20.2659 6.01311L19.4525 3.57311C19.3631 3.30828 19.1927 3.07827 18.9654 2.91557C18.7381 2.75287 18.4654 2.66572 18.1859 2.66645H12.8525C12.5618 2.65127 12.2741 2.73168 12.0333 2.8954C11.7925 3.05912 11.612 3.29714 11.5192 3.57311L10.7725 6.01311C10.6685 6.32176 10.4552 6.58166 10.1727 6.74378C9.89021 6.9059 9.55817 6.95902 9.23921 6.89311L6.66588 6.38645C6.40528 6.34962 6.13961 6.39074 5.90234 6.50463C5.66507 6.61852 5.46681 6.80008 5.33254 7.02645L2.66588 11.6398C2.52076 11.8806 2.45551 12.1612 2.47945 12.4414C2.5034 12.7216 2.61532 12.987 2.79921 13.1998L4.49254 15.1198C4.7063 15.3631 4.82419 15.6759 4.82419 15.9998C4.82419 16.3237 4.7063 16.6365 4.49254 16.8798L2.79921 18.7998C2.61532 19.0125 2.5034 19.278 2.47945 19.5581C2.45551 19.8383 2.52076 20.1189 2.66588 20.3598L5.33254 24.9731C5.47267 25.2164 5.68604 25.4093 5.94221 25.5242C6.19839 25.6391 6.48431 25.6702 6.75921 25.6131L9.26588 25.1064C9.58483 25.0405 9.91688 25.0937 10.1994 25.2558C10.4818 25.4179 10.6952 25.6778 10.7992 25.9864L11.6125 28.4264C11.7053 28.7024 11.8859 28.9404 12.1266 29.1042C12.3674 29.2679 12.6551 29.3483 12.9459 29.3331H18.2792C18.5587 29.3338 18.8314 29.2467 19.0587 29.084C19.286 28.9213 19.4564 28.6913 19.5459 28.4264L20.3592 25.9864C20.4632 25.6778 20.6766 25.4179 20.9591 25.2558C21.2415 25.0937 21.5736 25.0405 21.8925 25.1064L24.3992 25.6131C24.6741 25.6702 24.96 25.6391 25.2162 25.5242C25.4724 25.4093 25.6857 25.2164 25.8259 24.9731L28.4925 20.3598C28.6341 20.1162 28.6949 19.834 28.6661 19.5538C28.6374 19.2735 28.5206 19.0096 28.3325 18.7998L26.5325 16.8798ZM24.5459 18.6664L25.6125 19.8664L23.9059 22.8264L22.3325 22.5064C21.3722 22.3102 20.3733 22.4733 19.5253 22.9648C18.6774 23.4564 18.0394 24.2422 17.7325 25.1731L17.2259 26.6664H13.8125L13.3325 25.1464C13.0257 24.2156 12.3877 23.4298 11.5398 22.9382C10.6918 22.4466 9.69284 22.2835 8.73254 22.4798L7.15921 22.7998L5.42588 19.8531L6.49254 18.6531C7.14848 17.9198 7.51112 16.9704 7.51112 15.9864C7.51112 15.0025 7.14848 14.0531 6.49254 13.3198L5.42588 12.1198L7.13254 9.18645L8.70588 9.50645C9.66617 9.70274 10.6651 9.53962 11.5131 9.04804C12.3611 8.55647 12.999 7.77066 13.3059 6.83978L13.8125 5.33311H17.2259L17.7325 6.85311C18.0394 7.78399 18.6774 8.5698 19.5253 9.06138C20.3733 9.55295 21.3722 9.71608 22.3325 9.51978L23.9059 9.19978L25.6125 12.1598L24.5459 13.3598C23.8973 14.0915 23.5392 15.0354 23.5392 16.0131C23.5392 16.9909 23.8973 17.9348 24.5459 18.6664ZM15.5192 10.6664C14.4644 10.6664 13.4332 10.9792 12.5562 11.5653C11.6791 12.1513 10.9955 12.9843 10.5919 13.9588C10.1882 14.9333 10.0826 16.0057 10.2884 17.0403C10.4941 18.0748 11.0021 19.0251 11.748 19.771C12.4939 20.5169 13.4442 21.0248 14.4787 21.2306C15.5133 21.4364 16.5856 21.3308 17.5602 20.9271C18.5347 20.5235 19.3677 19.8399 19.9537 18.9628C20.5397 18.0858 20.8525 17.0546 20.8525 15.9998C20.8525 14.5853 20.2906 13.2287 19.2904 12.2285C18.2903 11.2283 16.9337 10.6664 15.5192 10.6664ZM15.5192 18.6664C14.9918 18.6664 14.4762 18.51 14.0377 18.217C13.5992 17.924 13.2574 17.5075 13.0555 17.0203C12.8537 16.533 12.8009 15.9968 12.9038 15.4795C13.0067 14.9623 13.2607 14.4871 13.6336 14.1142C14.0065 13.7412 14.4817 13.4872 14.999 13.3844C15.5163 13.2815 16.0524 13.3343 16.5397 13.5361C17.027 13.7379 17.4434 14.0797 17.7365 14.5183C18.0295 14.9568 18.1859 15.4724 18.1859 15.9998C18.1859 16.707 17.9049 17.3853 17.4048 17.8854C16.9047 18.3855 16.2265 18.6664 15.5192 18.6664Z" fill="#757575"/>
</svg>
