<svg width="15" height="11" viewBox="0 0 15 11" fill="none" xmlns="http://www.w3.org/2000/svg">
<path d="M0 0.666667C0 0.489856 0.0702378 0.320286 0.195262 0.195262C0.320286 0.0702378 0.489856 0 0.666667 0H14C14.1768 0 14.3464 0.0702378 14.4714 0.195262C14.5964 0.320286 14.6667 0.489856 14.6667 0.666667C14.6667 0.843478 14.5964 1.01305 14.4714 1.13807C14.3464 1.2631 14.1768 1.33333 14 1.33333H0.666667C0.489856 1.33333 0.320286 1.2631 0.195262 1.13807C0.0702378 1.01305 0 0.843478 0 0.666667ZM2.22222 5.11111C2.22222 4.9343 2.29246 4.76473 2.41748 4.63971C2.54251 4.51468 2.71208 4.44444 2.88889 4.44444H11.7778C11.9546 4.44444 12.1242 4.51468 12.2492 4.63971C12.3742 4.76473 12.4444 4.9343 12.4444 5.11111C12.4444 5.28792 12.3742 5.45749 12.2492 5.58252C12.1242 5.70754 11.9546 5.77778 11.7778 5.77778H2.88889C2.71208 5.77778 2.54251 5.70754 2.41748 5.58252C2.29246 5.45749 2.22222 5.28792 2.22222 5.11111ZM4.88889 9.55556C4.88889 9.37875 4.95913 9.20918 5.08415 9.08415C5.20918 8.95913 5.37874 8.88889 5.55556 8.88889H9.11111C9.28792 8.88889 9.45749 8.95913 9.58252 9.08415C9.70754 9.20918 9.77778 9.37875 9.77778 9.55556C9.77778 9.73237 9.70754 9.90194 9.58252 10.027C9.45749 10.152 9.28792 10.2222 9.11111 10.2222H5.55556C5.37874 10.2222 5.20918 10.152 5.08415 10.027C4.95913 9.90194 4.88889 9.73237 4.88889 9.55556Z" fill="white"/>
</svg>
