<svg width="136" height="22" viewBox="0 0 136 22" fill="none" xmlns="http://www.w3.org/2000/svg">
<path d="M12.2731 9.90218C12.303 9.96257 12.3448 9.9588 12.3798 9.96841C13.0308 10.1496 13.6498 10.4059 14.2043 10.8112C14.9294 11.341 15.4194 12.0461 15.6713 12.9287C15.8669 13.6136 15.9029 14.3136 15.8545 15.0209C15.8147 15.5987 15.696 16.1594 15.5011 16.7026C15.2653 17.3594 14.9311 17.9589 14.4977 18.4948C14.1357 18.942 13.6649 19.2367 13.1509 19.4605C12.5916 19.7037 12.0068 19.8486 11.4087 19.9436C10.613 20.0699 9.81278 20.1172 9.00811 20.1162C6.06531 20.1124 3.1225 20.1148 0.179699 20.1141C-0.0292756 20.1141 0.00160735 20.1419 0.00160735 19.9244C0.000921059 13.5141 0.00126419 7.1035 0.00126419 0.693222C0.00126419 0.459541 -0.0224128 0.485274 0.195827 0.485274C3.30506 0.484931 6.41428 0.485274 9.52351 0.484931C10.1329 0.484931 10.7396 0.520618 11.3391 0.639346C12.1125 0.792731 12.841 1.06142 13.4769 1.55966C13.9696 1.94604 14.3457 2.43811 14.6676 2.97787C14.9702 3.48573 15.1758 4.03544 15.2832 4.6205C15.3961 5.23439 15.4126 5.85102 15.3055 6.47108C15.1703 7.25517 14.8597 7.95346 14.3715 8.5646C13.9827 9.05152 13.492 9.40153 12.9347 9.6534C12.7223 9.75017 12.503 9.82772 12.2731 9.90218ZM5.36495 13.9664C5.36495 14.5082 5.36495 15.0504 5.36495 15.5922C5.36495 15.7391 5.36564 15.7401 5.50255 15.7401C5.89236 15.7404 6.28217 15.7404 6.67199 15.7401C7.24229 15.7394 7.81294 15.7439 8.38325 15.7356C8.7185 15.7308 9.04551 15.6629 9.34679 15.503C9.94524 15.1852 10.3831 14.4217 10.1861 13.5948C10.0557 13.0471 9.76989 12.6147 9.25071 12.3872C8.97242 12.2654 8.67732 12.2036 8.37707 12.1954C7.41215 12.1683 6.44723 12.1889 5.48231 12.1834C5.46789 12.1834 5.45382 12.1841 5.43941 12.1837C5.38417 12.182 5.36358 12.2129 5.36529 12.2664C5.36632 12.3008 5.36529 12.3354 5.36529 12.3697C5.36495 12.9023 5.36495 13.4342 5.36495 13.9664ZM5.36495 6.34309C5.36495 6.53044 5.36495 6.71746 5.36495 6.90481C5.36495 7.22497 5.36461 7.54512 5.36529 7.86562C5.36564 8.00116 5.36667 8.00116 5.50049 8.00287C5.5053 8.00287 5.5101 8.00287 5.5149 8.00287C6.33742 8.00287 7.15959 8.00356 7.98211 8.00219C8.19589 8.00185 8.40932 8.00185 8.62105 7.95724C8.96007 7.88552 9.2641 7.75238 9.49057 7.46654C9.84435 7.01977 9.96789 6.51054 9.86975 5.94573C9.77881 5.42415 9.49092 5.06453 9.01051 4.87512C8.73703 4.76737 8.45256 4.71247 8.16055 4.71109C7.2718 4.70732 6.38272 4.70766 5.49397 4.70698C5.36667 4.70698 5.36564 4.70869 5.36564 4.85075C5.36461 5.34797 5.36495 5.84553 5.36495 6.34309Z" fill="#E6D400"/>
<path d="M23.8071 15.1561C23.9454 15.1289 24.0641 15.1077 24.1822 15.0826C24.5956 14.9951 25.0067 14.897 25.4202 14.8098C25.8059 14.7282 26.1861 14.6204 26.5694 14.5267C26.7122 14.4917 26.8587 14.4801 27.0025 14.4464C27.326 14.3709 27.6531 14.314 27.976 14.2333C28.2481 14.1654 28.5229 14.1102 28.7961 14.047C29.0322 13.9925 29.2665 13.9297 29.5029 13.8754C29.7524 13.8181 30.0032 13.7653 30.251 13.697C30.6497 13.5869 31.0512 13.4873 31.4517 13.3844C31.4585 13.3827 31.4674 13.3916 31.476 13.3957C31.4825 13.4362 31.4517 13.4575 31.4318 13.4832C31.1219 13.8765 30.8412 14.2906 30.5897 14.7268C30.541 14.8112 30.4812 14.8887 30.4325 14.9732C30.3965 15.036 30.4154 15.0679 30.4847 15.0627C30.5838 15.0552 30.6844 15.0466 30.7812 15.0246C31.1051 14.9512 31.4352 14.9159 31.7608 14.8517C32.198 14.7652 32.6424 14.722 33.073 14.5954C33.2593 14.5408 33.457 14.5336 33.6492 14.4996C33.8598 14.4626 34.0668 14.4087 34.2754 14.3641C34.4562 14.3253 34.6408 14.3081 34.8196 14.2584C34.8834 14.2405 34.9507 14.2344 35.0142 14.2148C35.2513 14.1421 35.4966 14.1119 35.7382 14.0628C35.9057 14.0288 36.0711 13.9859 36.2392 13.9533C36.5326 13.8971 36.8212 13.813 37.1156 13.7653C37.4244 13.7152 37.7302 13.6469 38.0393 13.6009C38.0623 13.5975 38.0901 13.5845 38.1035 13.6105C38.122 13.6473 38.0894 13.6627 38.0651 13.6754C37.771 13.8271 37.5016 14.022 37.2182 14.1925C36.9722 14.3407 36.7316 14.5 36.4955 14.665C36.3339 14.7779 36.1641 14.8764 35.9993 14.9835C35.5728 15.2604 35.1405 15.5277 34.7143 15.8049C34.5286 15.9257 34.3324 16.0252 34.1423 16.1361C33.724 16.3797 33.3074 16.6254 32.8915 16.8731C32.7024 16.9857 32.5051 17.0832 32.3133 17.1906C32.0752 17.3237 31.8446 17.4712 31.6054 17.6027C31.2571 17.7941 30.9112 17.9904 30.5643 18.185C30.3598 18.2996 30.1553 18.4142 29.9507 18.5292C29.9466 18.5316 29.9429 18.5347 29.9384 18.5367C29.8962 18.557 29.8512 18.5978 29.8066 18.5642C29.7648 18.5322 29.797 18.4822 29.8056 18.4403C29.8646 18.1462 29.9473 17.8583 30.0376 17.5735C30.0925 17.4006 30.124 17.2204 30.1934 17.0523C30.251 16.9123 30.3021 16.7692 30.3557 16.6275C30.366 16.6 30.3783 16.5726 30.3841 16.5441C30.3968 16.4844 30.3697 16.4549 30.3159 16.4744C30.2671 16.4923 30.2187 16.5166 30.1762 16.5472C30.0657 16.6264 29.9422 16.6769 29.8207 16.7331C29.3437 16.9538 28.875 17.1916 28.4069 17.4318C28.0243 17.6281 27.6404 17.8216 27.2615 18.0265C26.7904 18.2811 26.3134 18.5233 25.843 18.779C25.309 19.0693 24.7778 19.3657 24.2494 19.667C24.129 19.7357 24.0071 19.8022 23.8867 19.8712C23.8661 19.8832 23.8339 19.8873 23.8246 19.9048C23.7628 20.0208 23.6582 19.9968 23.5614 19.9968C21.2699 19.9971 18.978 19.9971 16.6865 19.9971C16.6721 19.9971 16.658 19.9975 16.6436 19.9971C16.5187 19.9954 16.5173 19.9954 16.517 19.8636C16.5167 18.42 16.5173 16.9761 16.5156 15.5325C16.5156 15.4553 16.539 15.4062 16.6007 15.3616C17.0722 15.0209 17.5413 14.6763 18.0114 14.3329C18.7066 13.825 19.4063 13.3233 20.0956 12.8072C20.6155 12.4181 21.11 11.9936 21.6069 11.5733C22.0855 11.1684 22.5639 10.7635 23.0312 10.3448C23.5388 9.89051 24.0319 9.42006 24.4855 8.90774C24.8715 8.47195 25.1879 7.98846 25.3564 7.41575C25.5163 6.87187 25.5458 6.32387 25.3979 5.77003C25.202 5.03536 24.5864 4.50109 23.8517 4.44516C23.488 4.41736 23.1314 4.44927 22.7914 4.60815C22.5169 4.73683 22.2873 4.92075 22.0986 5.16164C21.8083 5.53258 21.6405 5.9646 21.5207 6.41926C21.4116 6.83378 21.3529 7.25757 21.3121 7.68444C21.3001 7.81037 21.297 7.81483 21.1724 7.78944C20.4083 7.63331 19.6444 7.47614 18.8802 7.3207C18.1298 7.168 17.3793 7.01702 16.6289 6.86535C16.5235 6.84408 16.5118 6.82829 16.53 6.71608C16.7026 5.65508 16.9964 4.63525 17.4991 3.68818C17.9218 2.89243 18.476 2.21129 19.1716 1.65677C19.8554 1.11151 20.6076 0.696304 21.4288 0.420416C21.9541 0.243697 22.4929 0.132863 23.0419 0.0614887C23.616 -0.0129735 24.1914 -0.0122861 24.7641 0.0240872C25.6498 0.0803628 26.5159 0.261542 27.3408 0.614637C28.0319 0.910084 28.6598 1.31156 29.2185 1.82902C29.8159 2.38252 30.2805 3.0338 30.5952 3.79867C30.7619 4.20393 30.8755 4.62462 30.9496 5.05801C30.9785 5.22718 30.998 5.39806 31.0498 5.56312C31.0697 5.6266 31.066 5.69969 31.0663 5.76832C31.0677 6.09362 31.0622 6.41892 31.0691 6.74388C31.0721 6.88113 31.02 7.00329 31.0008 7.13403C30.8515 8.14185 30.508 9.07314 29.9658 9.92482C29.8348 10.1311 29.6886 10.3249 29.528 10.5065C28.923 11.1924 28.2419 11.7908 27.5384 12.3632C26.6597 13.078 25.7513 13.7512 24.8262 14.4005C24.527 14.6105 24.2271 14.8187 23.9286 15.0291C23.8898 15.0559 23.8418 15.072 23.8071 15.1561Z" fill="#E6D400"/>
<path d="M134.8 19.6433C134.596 19.7846 134.434 19.74 134.283 19.74C129.289 19.7414 124.294 19.7325 119.3 19.7421C117.564 19.7455 115.915 19.4237 114.441 18.4755C112.433 17.1836 111.347 15.2925 111.192 12.9389C110.811 7.15557 115.052 1.87732 120.755 0.907936C122.064 0.685235 123.373 0.757643 124.684 0.740142C125.805 0.725044 126.929 0.704111 128.047 0.764504C130.971 0.92235 133.312 2.11683 134.757 4.75699C135.669 6.42329 135.739 8.23818 135.535 10.0761C135.432 11.0026 135.151 11.8851 134.808 12.7529C134.801 12.7701 134.794 12.7869 134.787 12.8034C134.632 13.1572 134.403 13.2615 134.016 13.2567C132.387 13.2364 130.757 13.2433 129.127 13.2522C128.933 13.2532 128.641 13.1386 128.563 13.3641C128.494 13.5648 128.763 13.7017 128.908 13.8428C129.856 14.7703 130.805 15.6964 131.754 16.6226C132.672 17.5178 133.589 18.4131 134.507 19.3087C134.605 19.4038 134.687 19.5136 134.8 19.6433ZM122.267 14.2521C122.268 14.1403 122.142 14.0644 122.069 13.992C121.975 13.8994 121.88 13.8067 121.786 13.7144C121.585 13.5185 121.385 13.3236 121.183 13.1283C120.763 12.7207 120.341 12.314 119.924 11.9036C119.808 11.7901 119.575 11.6991 119.666 11.4984C119.737 11.3405 119.95 11.4208 120.098 11.4202C121.605 11.415 123.115 11.4723 124.618 11.4003C125.777 11.3447 126.801 11.4603 127.516 12.5028C127.691 12.7577 127.872 12.7131 128.056 12.476C128.482 11.929 128.793 11.3261 128.974 10.6601C129.567 8.46775 128.213 6.54957 125.955 6.40202C125.344 6.36222 124.728 6.39584 124.116 6.39584C124.116 6.39104 124.116 6.38623 124.116 6.38143C123.607 6.38143 123.099 6.36633 122.591 6.38418C120.438 6.46035 118.899 7.50523 118.02 9.44399C117.059 11.5612 118.109 14.1969 120.752 14.3643C121.136 14.3887 121.521 14.3956 121.906 14.4052C122.025 14.4083 122.183 14.4553 122.246 14.3328C122.261 14.3039 122.267 14.2772 122.267 14.2521Z" fill="#FAFCFD"/>
<path d="M134.748 12.8827C134.748 12.8827 133.65 14.7003 131.619 16.5873C129.587 18.4742 127.941 15.411 127.941 15.411L128.087 13.2536C128.087 13.2536 132.275 11.8687 132.359 11.8272C132.442 11.7856 133.713 12.3271 133.713 12.3271" fill="#FAFCFD"/>
<path d="M122.378 14.3112L134.619 19.5651L134.802 19.6433L130.255 22L122.378 14.3112L119.677 11.682C119.677 11.682 119.504 11.3231 120.01 11.414L123.983 11.4236C123.983 11.4236 126.959 10.9823 127.657 12.6432L131.709 16.5763L134.645 19.457L133.752 19.8605L127.94 18.0199" fill="white"/>
<path d="M91.4949 0.729155C92.4002 0.729155 93.3057 0.740478 94.2109 0.72435C94.6731 0.716115 94.8385 0.85063 94.7466 1.35299C94.1498 4.61321 93.5775 7.87788 93.0027 11.1422C92.7642 12.4959 93.4186 13.5892 94.8831 13.9876C96.7824 14.5047 98.7058 14.4765 100.598 13.8558C102.314 13.293 103.106 12.044 103.386 10.3187C103.828 7.60748 104.348 4.90934 104.833 2.20536C104.883 1.92639 104.951 1.64569 104.956 1.365C104.964 0.838962 105.251 0.72298 105.714 0.726411C107.471 0.739794 109.229 0.72538 110.986 0.733272C111.64 0.736017 111.7 0.806021 111.586 1.45182C111.18 3.73853 110.762 6.0225 110.35 8.30784C110.165 9.3359 110.004 10.3691 109.793 11.392C109.269 13.9371 108.17 16.1562 106.02 17.7295C104.457 18.8736 102.665 19.5362 100.774 19.796C99.0417 20.0341 97.2755 20.1515 95.5279 20.1213C93.4924 20.0859 91.4558 19.8728 89.5672 18.9656C87.4719 17.9588 86.354 16.3165 86.2208 13.9927C86.1323 12.454 86.391 10.9542 86.6648 9.45188C87.1603 6.73281 87.6541 4.01339 88.1205 1.28917C88.1997 0.825924 88.4138 0.717833 88.8325 0.727441C89.7195 0.747687 90.6076 0.733616 91.4949 0.733616C91.4949 0.732243 91.4949 0.730527 91.4949 0.729155Z" fill="white"/>
<path d="M69.0355 7.81788C68.6824 8.43383 68.3272 8.94339 68.0826 9.501C67.3345 11.2064 67.9192 13.0704 69.4775 13.9169C69.8855 14.1386 70.3803 14.3019 70.8384 14.3102C72.2556 14.3349 73.6837 14.3647 75.0906 14.2223C77.5197 13.977 79.5131 11.4302 79.2077 9.11119C78.9863 7.43047 77.6254 6.30461 75.7584 6.28711C74.1253 6.27201 72.492 6.28403 70.859 6.28403C63.4388 6.28368 56.0187 6.28162 48.5985 6.28849C48.2856 6.28883 47.9589 6.32863 47.6638 6.42609C47.2784 6.55374 47.157 6.89414 47.1714 7.2812C47.1868 7.69641 47.5053 7.74651 47.8093 7.77465C49.2381 7.90676 50.6687 8.01828 52.0969 8.15382C53.5618 8.29279 55.0349 8.38681 56.4853 8.61878C57.9742 8.85692 59.2847 9.51747 59.9696 10.9515C60.2411 11.5197 60.3502 12.2033 60.3814 12.8419C60.541 16.1096 58.6571 18.2457 55.8461 19.3108C54.9223 19.6608 53.8795 19.8125 52.8854 19.8375C50.1711 19.9062 47.4541 19.8509 44.7381 19.8605C43.0036 19.8664 41.4807 19.387 40.3335 18.013C39.3034 16.7791 39.0715 15.3489 39.3618 13.8116C39.3858 13.685 39.6112 13.5055 39.7447 13.5045C41.715 13.4849 43.6854 13.4873 45.6557 13.501C45.7734 13.5017 45.9879 13.6386 45.992 13.7203C46.0188 14.2834 46.4151 14.3205 46.8169 14.3284C47.5265 14.3421 48.2368 14.3294 48.9468 14.3297C50.154 14.3301 51.3608 14.3325 52.568 14.3314C52.7272 14.3314 52.8899 14.3362 53.0453 14.3078C53.5233 14.2209 53.7913 13.8799 53.7848 13.4115C53.7779 12.9139 53.4046 12.847 53.0505 12.8175C51.3893 12.6789 49.7233 12.5907 48.0646 12.426C46.5856 12.2791 45.0785 12.1978 43.6483 11.8337C41.1588 11.2003 40.2567 9.47184 40.5357 6.91713C40.9186 3.40985 44.6266 0.796809 47.5725 0.786515C53.6256 0.765583 59.6786 0.761122 65.7317 0.760779C69.9208 0.760436 74.1106 0.743963 78.299 0.801955C80.5054 0.832494 82.4689 1.57986 84.0185 3.22215C85.2243 4.50002 85.8489 6.04039 85.9515 7.77945C86.3413 14.3915 80.9577 19.6831 74.741 19.8286C72.6478 19.8777 70.5464 19.9322 68.46 19.8018C65.4668 19.6148 63.0607 18.3356 61.7557 15.4889C60.9208 13.6678 60.8532 11.75 61.3329 9.81532C61.4733 9.24948 61.6514 8.69153 61.8463 8.1425C61.8936 8.00936 62.0758 7.83195 62.1973 7.83092C64.4483 7.81307 66.6997 7.81788 69.0355 7.81788Z" fill="white"/>
</svg>
