<svg width="50" height="27" viewBox="0 0 50 27" fill="none" xmlns="http://www.w3.org/2000/svg">
<path d="M16.102 12.9915C16.1412 13.0707 16.1961 13.0658 16.242 13.0784C17.096 13.3161 17.9082 13.6524 18.6357 14.1841C19.587 14.8792 20.2298 15.8043 20.5603 16.9622C20.8169 17.8608 20.8642 18.7792 20.8007 19.7071C20.7485 20.4652 20.5927 21.2008 20.337 21.9135C20.0277 22.7752 19.5892 23.5617 19.0206 24.2649C18.5457 24.8515 17.928 25.2382 17.2536 25.5317C16.5198 25.8509 15.7527 26.0409 14.968 26.1656C13.924 26.3313 12.8741 26.3934 11.8184 26.392C7.95751 26.3871 4.09664 26.3902 0.23576 26.3893C-0.0384088 26.3893 0.00210879 26.4258 0.00210879 26.1404C0.0012084 17.7303 0.00165859 9.31972 0.00165859 0.909616C0.00165859 0.603032 -0.029405 0.636794 0.256919 0.636794C4.33614 0.636344 8.41536 0.636794 12.4946 0.636344C13.2941 0.636344 14.0901 0.683164 14.8766 0.838932C15.8913 1.04017 16.8471 1.39268 17.6813 2.04636C18.3278 2.55328 18.8212 3.19886 19.2435 3.90702C19.6405 4.57331 19.9102 5.29452 20.0511 6.0621C20.1992 6.8675 20.2208 7.67651 20.0804 8.49001C19.903 9.51871 19.4956 10.4348 18.8549 11.2366C18.3449 11.8755 17.7011 12.3347 16.97 12.6651C16.6913 12.7921 16.4036 12.8938 16.102 12.9915ZM7.03867 18.3236C7.03867 19.0345 7.03867 19.7458 7.03867 20.4567C7.03867 20.6493 7.03957 20.6507 7.21919 20.6507C7.73062 20.6511 8.24204 20.6511 8.75346 20.6507C9.50169 20.6498 10.2504 20.6556 10.9986 20.6448C11.4384 20.6385 11.8675 20.5494 12.2627 20.3396C13.0479 19.9227 13.6223 18.921 13.3639 17.8361C13.1928 17.1176 12.8178 16.5503 12.1367 16.2518C11.7716 16.092 11.3844 16.011 10.9905 16.0002C9.72453 15.9646 8.45858 15.9916 7.19263 15.9844C7.17372 15.9844 7.15527 15.9853 7.13636 15.9849C7.06388 15.9826 7.03686 16.0231 7.03912 16.0934C7.04047 16.1384 7.03912 16.1838 7.03912 16.2289C7.03867 16.9276 7.03867 17.6254 7.03867 18.3236ZM7.03867 8.32208C7.03867 8.56789 7.03867 8.81324 7.03867 9.05905C7.03867 9.47908 7.03822 9.89912 7.03912 10.3196C7.03957 10.4974 7.04092 10.4974 7.21649 10.4997C7.2228 10.4997 7.2291 10.4997 7.2354 10.4997C8.31452 10.4997 9.39319 10.5006 10.4723 10.4988C10.7528 10.4983 11.0328 10.4983 11.3106 10.4398C11.7554 10.3457 12.1542 10.171 12.4514 9.79602C12.9155 9.20987 13.0776 8.54178 12.9488 7.80076C12.8295 7.11646 12.4518 6.64466 11.8215 6.39615C11.4627 6.25479 11.0895 6.18275 10.7064 6.18095C9.5404 6.176 8.37395 6.17645 7.20794 6.17555C7.04092 6.17555 7.03957 6.1778 7.03957 6.36418C7.03822 7.01651 7.03867 7.6693 7.03867 8.32208Z" fill="#E6D400"/>
<path d="M31.2332 19.8844C31.4146 19.8489 31.5704 19.8209 31.7253 19.7881C32.2677 19.6733 32.8071 19.5445 33.3496 19.4302C33.8556 19.323 34.3544 19.1817 34.8573 19.0588C35.0446 19.0128 35.2368 18.9975 35.4254 18.9534C35.85 18.8544 36.279 18.7796 36.7026 18.6738C37.0596 18.5847 37.4202 18.5122 37.7786 18.4294C38.0883 18.3578 38.3958 18.2754 38.706 18.2043C39.0333 18.1291 39.3624 18.0598 39.6874 17.9702C40.2105 17.8257 40.7373 17.6951 41.2627 17.5601C41.2717 17.5578 41.2834 17.5695 41.2946 17.5749C41.3032 17.628 41.2627 17.656 41.2365 17.6897C40.83 18.2056 40.4618 18.749 40.1318 19.3212C40.0678 19.432 39.9895 19.5337 39.9256 19.6445C39.8783 19.7269 39.9031 19.7687 39.994 19.762C40.1241 19.7521 40.256 19.7408 40.383 19.712C40.808 19.6157 41.241 19.5693 41.6683 19.4851C42.2418 19.3716 42.8248 19.3149 43.3898 19.1488C43.6343 19.0772 43.8936 19.0678 44.1457 19.0232C44.4221 18.9746 44.6936 18.9039 44.9673 18.8454C45.2046 18.7945 45.4468 18.772 45.6813 18.7067C45.7651 18.6833 45.8533 18.6752 45.9366 18.6495C46.2477 18.5541 46.5696 18.5145 46.8865 18.4501C47.1062 18.4055 47.3232 18.3493 47.5438 18.3065C47.9287 18.2327 48.3073 18.1224 48.6936 18.0598C49.0988 17.994 49.4999 17.9045 49.9055 17.8441C49.9357 17.8396 49.9721 17.8225 49.9897 17.8567C50.014 17.9049 49.9712 17.9252 49.9393 17.9418C49.5535 18.1408 49.2001 18.3965 48.8282 18.6203C48.5054 18.8148 48.1898 19.0236 47.8801 19.2402C47.668 19.3883 47.4452 19.5175 47.2291 19.658C46.6695 20.0213 46.1023 20.372 45.5431 20.7357C45.2996 20.8942 45.042 21.0248 44.7926 21.1702C44.2438 21.4898 43.6973 21.8122 43.1517 22.1372C42.9036 22.2849 42.6448 22.4127 42.3931 22.5536C42.0807 22.7283 41.7781 22.9219 41.4643 23.0943C41.0074 23.3455 40.5536 23.603 40.0984 23.8583C39.8301 24.0087 39.5618 24.159 39.2935 24.3098C39.2881 24.313 39.2831 24.317 39.2773 24.3197C39.2219 24.3463 39.1629 24.3999 39.1044 24.3558C39.0495 24.3139 39.0918 24.2482 39.1031 24.1932C39.1805 23.8074 39.289 23.4297 39.4074 23.056C39.4794 22.8291 39.5208 22.5928 39.6118 22.3722C39.6874 22.1885 39.7545 22.0008 39.8247 21.8149C39.8382 21.7788 39.8544 21.7428 39.8621 21.7055C39.8788 21.6271 39.8432 21.5884 39.7725 21.6141C39.7086 21.6375 39.6451 21.6694 39.5893 21.7095C39.4443 21.8135 39.2822 21.8797 39.1229 21.9535C38.4971 22.243 37.8821 22.555 37.2681 22.8701C36.7661 23.1276 36.2623 23.3815 35.7653 23.6503C35.1472 23.9844 34.5214 24.3022 33.9042 24.6376C33.2037 25.0184 32.5068 25.4074 31.8135 25.8027C31.6555 25.8927 31.4957 25.9801 31.3376 26.0706C31.3106 26.0863 31.2683 26.0917 31.2562 26.1147C31.1751 26.2668 31.0378 26.2353 30.9109 26.2353C27.9045 26.2358 24.8976 26.2358 21.8912 26.2358C21.8723 26.2358 21.8538 26.2362 21.8349 26.2358C21.671 26.2335 21.6692 26.2335 21.6688 26.0607C21.6683 24.1667 21.6692 22.2723 21.667 20.3783C21.667 20.277 21.6976 20.2126 21.7786 20.1541C22.3972 19.707 23.0126 19.255 23.6294 18.8044C24.5415 18.1381 25.4594 17.4799 26.3639 16.8028C27.0459 16.2923 27.6947 15.7354 28.3465 15.1839C28.9746 14.6527 29.6021 14.1215 30.2153 13.5722C30.8811 12.9762 31.5281 12.3589 32.1232 11.6868C32.6297 11.1151 33.0448 10.4807 33.2658 9.72936C33.4756 9.0158 33.5143 8.29684 33.3203 7.57022C33.0632 6.60635 32.2556 5.9054 31.2917 5.83202C30.8145 5.79555 30.3468 5.83742 29.9006 6.04586C29.5405 6.21468 29.2393 6.45599 28.9917 6.77203C28.6108 7.25869 28.3907 7.82549 28.2335 8.422C28.0904 8.96583 28.0134 9.52182 27.9598 10.0819C27.9441 10.2471 27.94 10.2529 27.7766 10.2196C26.774 10.0148 25.7719 9.80859 24.7693 9.60465C23.7847 9.40432 22.8001 9.20623 21.8156 9.00725C21.6773 8.97934 21.662 8.95862 21.6859 8.81141C21.9123 7.4194 22.2977 6.08142 22.9573 4.83888C23.5119 3.79488 24.239 2.90125 25.1515 2.17373C26.0487 1.45837 27.0356 0.913631 28.1129 0.551673C28.8021 0.319823 29.5089 0.174411 30.2293 0.0807707C30.9824 -0.0169217 31.7374 -0.0160198 32.4888 0.031701C33.6507 0.105533 34.787 0.343234 35.8693 0.806486C36.776 1.1941 37.5999 1.72083 38.3328 2.39973C39.1166 3.12589 39.7261 3.98037 40.139 4.98385C40.3578 5.51553 40.5068 6.06747 40.604 6.63607C40.6418 6.85801 40.6675 7.08221 40.7355 7.29875C40.7616 7.38204 40.7566 7.47793 40.7571 7.56797C40.7589 7.99476 40.7517 8.42154 40.7607 8.84788C40.7647 9.02796 40.6963 9.18823 40.6711 9.35975C40.4753 10.682 40.0246 11.9038 39.3133 13.0212C39.1413 13.2918 38.9496 13.5461 38.7389 13.7843C37.9452 14.6842 37.0515 15.4694 36.1286 16.2203C34.9757 17.158 33.784 18.0413 32.5703 18.8931C32.1777 19.1686 31.7842 19.4419 31.3926 19.7178C31.3417 19.753 31.2787 19.7741 31.2332 19.8844Z" fill="#E6D400"/>
</svg>
