<svg width="204" height="33" viewBox="0 0 204 33" fill="none" xmlns="http://www.w3.org/2000/svg">
<path d="M18.4097 14.8532C18.4545 14.9438 18.5173 14.9382 18.5698 14.9526C19.5462 15.2243 20.4747 15.6088 21.3065 16.2167C22.3941 17.0114 23.1291 18.0692 23.5069 19.393C23.8003 20.4204 23.8544 21.4704 23.7818 22.5313C23.7221 23.398 23.544 24.2391 23.2516 25.0539C22.898 26.039 22.3967 26.9382 21.7466 27.7422C21.2036 28.4129 20.4974 28.8551 19.7263 29.1906C18.8873 29.5556 18.0103 29.7728 17.1131 29.9154C15.9195 30.1048 14.7192 30.1758 13.5122 30.1743C9.09796 30.1686 4.68375 30.1722 0.269549 30.1712C-0.0439134 30.1712 0.00241102 30.2129 0.00241102 29.8865C0.00138159 20.2711 0.00189629 10.6552 0.00189629 1.0398C0.00189629 0.68928 -0.0336192 0.727881 0.29374 0.727881C4.95758 0.727366 9.62142 0.727881 14.2853 0.727366C15.1994 0.727366 16.1094 0.780896 17.0086 0.958988C18.1688 1.18907 19.2615 1.59209 20.2153 2.33946C20.9544 2.91903 21.5186 3.65713 22.0014 4.46678C22.4554 5.22856 22.7637 6.05313 22.9248 6.93072C23.0941 7.85155 23.1188 8.7765 22.9582 9.70659C22.7554 10.8827 22.2896 11.9302 21.5572 12.8469C20.974 13.5773 20.238 14.1023 19.4021 14.4801C19.0835 14.6252 18.7545 14.7415 18.4097 14.8532ZM8.04742 20.9495C8.04742 21.7623 8.04742 22.5755 8.04742 23.3883C8.04742 23.6086 8.04845 23.6101 8.25382 23.6101C8.83854 23.6106 9.42326 23.6106 10.008 23.6101C10.8634 23.6091 11.7194 23.6158 12.5749 23.6034C13.0777 23.5962 13.5683 23.4943 14.0202 23.2544C14.9179 22.7778 15.5746 21.6326 15.2792 20.3921C15.0836 19.5706 14.6548 18.9221 13.8761 18.5808C13.4586 18.3981 13.016 18.3054 12.5656 18.2931C11.1182 18.2524 9.67084 18.2833 8.22346 18.2751C8.20184 18.2751 8.18073 18.2761 8.15912 18.2756C8.07625 18.273 8.04536 18.3193 8.04794 18.3996C8.04948 18.4511 8.04794 18.5031 8.04794 18.5546C8.04742 19.3534 8.04742 20.1512 8.04742 20.9495ZM8.04742 9.5146C8.04742 9.79563 8.04742 10.0762 8.04742 10.3572C8.04742 10.8374 8.04691 11.3176 8.04794 11.7984C8.04845 12.0017 8.05 12.0017 8.25074 12.0043C8.25794 12.0043 8.26515 12.0043 8.27235 12.0043C9.50613 12.0043 10.7394 12.0053 11.9732 12.0033C12.2938 12.0027 12.614 12.0027 12.9316 11.9358C13.4401 11.8282 13.8961 11.6285 14.2359 11.1998C14.7665 10.5296 14.9518 9.76578 14.8046 8.91856C14.6682 8.13619 14.2364 7.59677 13.5158 7.31265C13.1055 7.15103 12.6788 7.06867 12.2408 7.06661C10.9077 7.06095 9.57407 7.06146 8.24096 7.06043C8.05 7.06043 8.04845 7.063 8.04845 7.2761C8.04691 8.02192 8.04742 8.76826 8.04742 9.5146Z" fill="#E6D400"/>
<path d="M35.7106 22.734C35.9181 22.6934 36.0962 22.6615 36.2732 22.6239C36.8935 22.4926 37.5101 22.3454 38.1303 22.2147C38.7089 22.0922 39.2792 21.9306 39.8541 21.7901C40.0682 21.7376 40.288 21.7201 40.5037 21.6696C40.989 21.5564 41.4796 21.4709 41.9639 21.35C42.3721 21.2481 42.7844 21.1652 43.1941 21.0705C43.5482 20.9886 43.8998 20.8944 44.2544 20.8131C44.6286 20.7272 45.0049 20.6479 45.3765 20.5455C45.9746 20.3802 46.5768 20.231 47.1775 20.0766C47.1878 20.074 47.2012 20.0874 47.214 20.0935C47.2238 20.1543 47.1775 20.1862 47.1476 20.2248C46.6828 20.8147 46.2618 21.4359 45.8845 22.0901C45.8114 22.2168 45.7219 22.3331 45.6488 22.4597C45.5947 22.5539 45.623 22.6018 45.727 22.594C45.8758 22.5827 46.0266 22.5698 46.1717 22.5369C46.6576 22.4268 47.1528 22.3737 47.6412 22.2775C48.297 22.1478 48.9635 22.0829 49.6095 21.893C49.889 21.8112 50.1855 21.8004 50.4737 21.7494C50.7898 21.6938 51.1001 21.613 51.4131 21.5461C51.6843 21.4879 51.9613 21.4622 52.2294 21.3875C52.3252 21.3608 52.426 21.3515 52.5213 21.3222C52.8769 21.2131 53.245 21.1678 53.6073 21.0942C53.8585 21.0432 54.1066 20.9789 54.3588 20.93C54.7989 20.8456 55.2318 20.7194 55.6734 20.6479C56.1366 20.5728 56.5952 20.4703 57.059 20.4014C57.0935 20.3962 57.1352 20.3766 57.1553 20.4158C57.183 20.4708 57.1342 20.494 57.0976 20.513C56.6565 20.7405 56.2524 21.0329 55.8273 21.2887C55.4582 21.5111 55.0974 21.7499 54.7433 21.9975C54.5009 22.1668 54.2461 22.3146 53.999 22.4751C53.3592 22.8905 52.7107 23.2915 52.0714 23.7074C51.7929 23.8885 51.4985 24.0378 51.2134 24.2041C50.5859 24.5695 49.9611 24.9381 49.3372 25.3097C49.0536 25.4785 48.7577 25.6247 48.4699 25.7858C48.1127 25.9855 47.7668 26.2068 47.4081 26.404C46.8856 26.6912 46.3668 26.9856 45.8464 27.2774C45.5397 27.4494 45.2329 27.6213 44.9261 27.7937C44.9199 27.7973 44.9143 27.8019 44.9076 27.805C44.8443 27.8354 44.7768 27.8966 44.7099 27.8462C44.6471 27.7983 44.6955 27.7232 44.7084 27.6604C44.7969 27.2193 44.921 26.7874 45.0563 26.3602C45.1387 26.1008 45.186 25.8306 45.29 25.5784C45.3765 25.3684 45.4532 25.1537 45.5335 24.9411C45.5489 24.9 45.5675 24.8588 45.5762 24.8161C45.5952 24.7265 45.5546 24.6822 45.4738 24.7116C45.4007 24.7383 45.3281 24.7749 45.2643 24.8207C45.0985 24.9396 44.9132 25.0153 44.731 25.0997C44.0156 25.4306 43.3125 25.7873 42.6104 26.1476C42.0365 26.4421 41.4605 26.7324 40.8923 27.0396C40.1856 27.4216 39.4701 27.785 38.7644 28.1684C37.9636 28.6039 37.1668 29.0486 36.3741 29.5005C36.1934 29.6034 36.0107 29.7033 35.8301 29.8068C35.7992 29.8248 35.7508 29.831 35.7369 29.8572C35.6442 30.0312 35.4873 29.9951 35.3421 29.9951C31.9048 29.9957 28.467 29.9957 25.0298 29.9957C25.0081 29.9957 24.987 29.9962 24.9654 29.9957C24.7781 29.9931 24.776 29.9931 24.7755 29.7954C24.775 27.63 24.776 25.4641 24.7734 23.2987C24.7734 23.1829 24.8084 23.1093 24.9011 23.0424C25.6083 22.5312 26.3119 22.0145 27.0171 21.4992C28.0599 20.7375 29.1094 19.9849 30.1435 19.2108C30.9233 18.6271 31.665 17.9904 32.4103 17.3599C33.1283 16.7525 33.8458 16.1452 34.5469 15.5172C35.3081 14.8357 36.0478 14.13 36.7282 13.3616C37.3073 12.7079 37.7819 11.9827 38.0346 11.1236C38.2744 10.3078 38.3187 9.48577 38.0969 8.65502C37.803 7.55301 36.8796 6.7516 35.7775 6.6677C35.232 6.62601 34.6972 6.67388 34.1871 6.91219C33.7753 7.10521 33.431 7.3811 33.1479 7.74243C32.7124 8.29883 32.4607 8.94686 32.2811 9.62886C32.1174 10.2506 32.0294 10.8863 31.9681 11.5266C31.9501 11.7155 31.9455 11.7222 31.7586 11.6841C30.6124 11.4499 29.4666 11.2142 28.3203 10.981C27.1947 10.752 26.069 10.5255 24.9433 10.298C24.7853 10.2661 24.7678 10.2424 24.7951 10.0741C25.054 8.48258 25.4946 6.95285 26.2486 5.53223C26.8827 4.33861 27.714 3.3169 28.7573 2.48512C29.7832 1.66723 30.9114 1.04443 32.1431 0.630594C32.9312 0.365515 33.7393 0.199263 34.5628 0.0922026C35.4239 -0.0194908 36.2871 -0.0184596 37.1462 0.0361003C38.4747 0.120514 39.7738 0.392282 41.0112 0.921924C42.0478 1.3651 42.9898 1.96731 43.8277 2.74351C44.7238 3.57374 45.4208 4.55067 45.8927 5.69798C46.1429 6.30586 46.3133 6.9369 46.4245 7.58698C46.4677 7.84074 46.497 8.09706 46.5747 8.34464C46.6046 8.43987 46.5989 8.5495 46.5995 8.65244C46.6015 9.14039 46.5933 9.62835 46.6036 10.1158C46.6082 10.3217 46.53 10.5049 46.5011 10.701C46.2772 12.2127 45.762 13.6097 44.9488 14.8872C44.7521 15.1965 44.5329 15.4874 44.292 15.7596C43.3845 16.7886 42.3628 17.6862 41.3077 18.5448C39.9895 19.6169 38.627 20.6268 37.2393 21.6006C36.7905 21.9156 36.3407 22.2281 35.8928 22.5436C35.8347 22.5837 35.7626 22.6079 35.7106 22.734Z" fill="#E6D400"/>
<path d="M202.198 29.4649C201.892 29.677 201.649 29.61 201.422 29.61C193.931 29.6121 186.44 29.5987 178.948 29.6131C176.343 29.6183 173.871 29.1355 171.66 27.7133C168.647 25.7754 167.018 22.9388 166.786 19.4084C166.214 10.7333 172.576 2.81598 181.13 1.3619C183.094 1.02785 185.058 1.13646 187.024 1.11021C188.706 1.08757 190.392 1.05617 192.069 1.14676C196.455 1.38353 199.966 3.17525 202.134 7.13548C203.502 9.63494 203.606 12.3573 203.3 15.1141C203.146 16.5038 202.725 17.8277 202.21 19.1294C202.2 19.1551 202.189 19.1803 202.179 19.2051C201.945 19.7357 201.603 19.8922 201.022 19.885C198.578 19.8546 196.133 19.8649 193.689 19.8783C193.398 19.8798 192.96 19.7079 192.843 20.0461C192.739 20.3472 193.143 20.5526 193.359 20.7641C194.782 22.1554 196.205 23.5446 197.629 24.9338C199.005 26.2767 200.382 27.6196 201.759 28.963C201.905 29.1056 202.029 29.2703 202.198 29.4649ZM183.399 21.3782C183.4 21.2104 183.211 21.0966 183.101 20.988C182.96 20.8491 182.819 20.7101 182.677 20.5716C182.376 20.2777 182.075 19.9854 181.773 19.6925C181.142 19.081 180.51 18.4711 179.884 17.8555C179.711 17.6851 179.36 17.5487 179.497 17.2476C179.604 17.0108 179.923 17.1313 180.145 17.1302C182.406 17.1225 184.67 17.2085 186.926 17.1004C188.664 17.017 190.2 17.1905 191.272 18.7542C191.534 19.1366 191.806 19.0697 192.082 18.714C192.721 17.8936 193.188 16.9892 193.459 15.9901C194.349 12.7016 192.318 9.82436 188.93 9.60303C188.014 9.54332 187.091 9.59376 186.171 9.59376C186.171 9.58655 186.171 9.57934 186.171 9.57214C185.409 9.57214 184.646 9.5495 183.885 9.57626C180.655 9.69053 178.347 11.2578 177.028 14.166C175.586 17.3418 177.162 21.2953 181.127 21.5465C181.702 21.583 182.28 21.5933 182.857 21.6077C183.035 21.6124 183.273 21.6829 183.367 21.4991C183.389 21.4559 183.399 21.4158 183.399 21.3782Z" fill="#0554FF"/>
<path d="M202.116 19.324C202.116 19.324 200.469 22.0504 197.422 24.8809C194.375 27.7113 191.906 23.1164 191.906 23.1164L192.125 19.8804C192.125 19.8804 198.407 17.803 198.532 17.7407C198.657 17.6784 200.564 18.4907 200.564 18.4907" fill="#0554FF"/>
<path d="M183.564 21.4668L201.925 29.3476L202.198 29.4649L195.378 33L183.564 21.4668L179.512 17.523C179.512 17.523 179.251 16.9846 180.011 17.121L185.97 17.1354C185.97 17.1354 190.434 16.4735 191.481 18.9647L197.559 24.8644L201.963 29.1854L200.623 29.7908L191.906 27.0298" fill="#0554FF"/>
<path d="M137.242 1.09373C138.6 1.09373 139.959 1.11072 141.316 1.08653C142.01 1.07417 142.258 1.27594 142.12 2.02949C141.225 6.91981 140.366 11.8168 139.504 16.7133C139.146 18.7439 140.128 20.3837 142.325 20.9813C145.174 21.757 148.059 21.7148 150.897 20.7837C153.47 19.9395 154.658 18.066 155.079 15.478C155.741 11.4112 156.522 7.364 157.25 3.30804C157.325 2.88958 157.427 2.46854 157.434 2.0475C157.446 1.25844 157.877 1.08447 158.571 1.08962C161.207 1.10969 163.843 1.08807 166.479 1.09991C167.46 1.10403 167.55 1.20903 167.379 2.17773C166.771 5.60779 166.144 9.03374 165.526 12.4618C165.248 14.0038 165.006 15.5536 164.69 17.088C163.904 20.9057 162.255 24.2343 159.03 26.5943C156.686 28.3104 153.997 29.3043 151.161 29.6939C148.563 30.0511 145.913 30.2272 143.292 30.1819C140.239 30.1289 137.184 29.8092 134.351 28.4483C131.208 26.9381 129.531 24.4747 129.331 20.9891C129.198 18.6811 129.587 16.4312 129.997 14.1778C130.741 10.0992 131.481 6.02008 132.181 1.93375C132.3 1.23889 132.621 1.07675 133.249 1.09116C134.579 1.12153 135.911 1.10042 137.242 1.10042C137.242 1.09836 137.242 1.09579 137.242 1.09373Z" fill="#0554FF"/>
<path d="M103.551 11.7268C103.022 12.6507 102.489 13.4151 102.122 14.2515C101 16.8096 101.877 19.6055 104.214 20.8754C104.826 21.2079 105.568 21.4529 106.256 21.4652C108.381 21.5023 110.524 21.5471 112.634 21.3334C116.278 20.9654 119.268 17.1452 118.81 13.6668C118.478 11.1457 116.436 9.45689 113.636 9.43064C111.186 9.40799 108.736 9.426 106.286 9.426C95.1562 9.42549 84.026 9.4224 72.8958 9.4327C72.4264 9.43321 71.9364 9.49292 71.4937 9.6391C70.9157 9.83057 70.7335 10.3412 70.7551 10.9218C70.7783 11.5446 71.2559 11.6197 71.712 11.6619C73.8553 11.8601 76.0011 12.0274 78.1433 12.2307C80.3407 12.4392 82.5503 12.5802 84.7261 12.9281C86.9594 13.2853 88.9251 14.2762 89.9525 16.4272C90.3596 17.2795 90.5233 18.3049 90.5701 19.2627C90.8095 24.1644 87.9837 27.3685 83.7671 28.9662C82.3815 29.4912 80.8173 29.7187 79.3262 29.7563C75.2548 29.8592 71.1792 29.7763 67.1053 29.7907C64.5034 29.7995 62.2191 29.0804 60.4984 27.0195C58.9532 25.1686 58.6052 23.0233 59.0407 20.7173C59.0767 20.5274 59.4149 20.2582 59.6151 20.2567C62.5706 20.2273 65.5261 20.2309 68.4816 20.2515C68.6582 20.2525 68.9799 20.4579 68.986 20.5804C69.0262 21.4251 69.6207 21.4807 70.2234 21.4925C71.2878 21.5131 72.3533 21.494 73.4183 21.4945C75.229 21.4951 77.0393 21.4987 78.85 21.4971C79.0889 21.4971 79.3329 21.5043 79.566 21.4616C80.283 21.3314 80.685 20.8198 80.6752 20.1172C80.6649 19.3708 80.1049 19.2705 79.5737 19.2262C77.082 19.0183 74.5831 18.886 72.0949 18.6389C69.8765 18.4186 67.6159 18.2966 65.4705 17.7505C61.7363 16.8003 60.3831 14.2077 60.8015 10.3757C61.376 5.11475 66.938 1.19518 71.3568 1.17974C80.4364 1.14834 89.516 1.14165 98.5956 1.14114C104.879 1.14062 111.164 1.11591 117.447 1.2029C120.756 1.24871 123.701 2.36976 126.026 4.83319C127.835 6.75 128.771 9.06055 128.925 11.6691C129.51 21.5872 121.435 29.5246 112.109 29.7429C108.97 29.8165 105.818 29.8983 102.688 29.7027C98.1982 29.4222 94.589 27.5033 92.6316 23.2333C91.3793 20.5017 91.2779 17.6249 91.9974 14.7229C92.208 13.8742 92.4751 13.0373 92.7675 12.2137C92.8385 12.014 93.1118 11.7479 93.294 11.7463C96.6705 11.7196 100.048 11.7268 103.551 11.7268Z" fill="#0554FF"/>
</svg>
