<svg width="32" height="32" viewBox="0 0 32 32" fill="none" xmlns="http://www.w3.org/2000/svg">
<g clip-path="url(#clip0_721_30)">
<path d="M18.0001 19.71C19.5677 18.7336 20.7747 17.2733 21.4385 15.5498C22.1022 13.8264 22.1866 11.9337 21.6788 10.1581C21.1711 8.38242 20.0988 6.82045 18.6243 5.70847C17.1498 4.59649 15.3532 3.995 13.5064 3.995C11.6596 3.995 9.86299 4.59649 8.38846 5.70847C6.91393 6.82045 5.84169 8.38242 5.33393 10.1581C4.82618 11.9337 4.91056 13.8264 5.57429 15.5498C6.23802 17.2733 7.445 18.7336 9.01262 19.71C6.43137 20.555 4.10887 22.1337 2.24137 24.3562C2.15387 24.4563 2.0872 24.5728 2.04525 24.6989C2.0033 24.8251 1.98691 24.9583 1.99705 25.0908C2.00719 25.2233 2.04365 25.3525 2.1043 25.4708C2.16495 25.5891 2.24857 25.6941 2.35027 25.7797C2.45198 25.8653 2.56972 25.9297 2.69662 25.9692C2.82352 26.0088 2.95704 26.0226 3.08935 26.01C3.22167 25.9973 3.35014 25.9584 3.46724 25.8955C3.58435 25.8327 3.68774 25.7471 3.77137 25.6437C6.28137 22.6487 9.73887 21 13.5001 21C17.2614 21 20.7189 22.6487 23.2339 25.6437C23.4046 25.847 23.6491 25.974 23.9135 25.997C24.1779 26.02 24.4407 25.937 24.6439 25.7662C24.8471 25.5955 24.9742 25.351 24.9971 25.0866C25.0201 24.8222 24.9371 24.5595 24.7664 24.3562C22.8976 22.1337 20.5751 20.555 18.0001 19.71ZM7.00012 12.5C7.00012 11.2144 7.38134 9.95771 8.09557 8.88879C8.8098 7.81987 9.82496 6.98675 11.0127 6.49478C12.2004 6.00281 13.5073 5.87409 14.7682 6.12489C16.0291 6.37569 17.1873 6.99476 18.0963 7.9038C19.0054 8.81284 19.6244 9.97103 19.8752 11.2319C20.126 12.4928 19.9973 13.7997 19.5053 14.9874C19.0134 16.1752 18.1802 17.1903 17.1113 17.9045C16.0424 18.6188 14.7857 19 13.5001 19C11.7768 18.998 10.1247 18.3126 8.90612 17.094C7.68756 15.8754 7.00211 14.2233 7.00012 12.5ZM31.5314 17.8837L30.9489 17.5475C31.0172 17.1857 31.0172 16.8143 30.9489 16.4525L31.5314 16.1162C31.6451 16.0506 31.7448 15.9632 31.8248 15.859C31.9048 15.7548 31.9634 15.6358 31.9975 15.509C32.0315 15.3821 32.0402 15.2498 32.023 15.1196C32.0059 14.9893 31.9633 14.8638 31.8976 14.75C31.832 14.6362 31.7445 14.5365 31.6403 14.4566C31.5361 14.3766 31.4172 14.3179 31.2904 14.2839C31.1635 14.2499 31.0312 14.2412 30.9009 14.2583C30.7707 14.2755 30.6451 14.3181 30.5314 14.3837L29.9476 14.7212C29.6683 14.4815 29.3471 14.2955 29.0001 14.1725V13.5C29.0001 13.2348 28.8948 12.9804 28.7072 12.7929C28.5197 12.6054 28.2653 12.5 28.0001 12.5C27.7349 12.5 27.4806 12.6054 27.293 12.7929C27.1055 12.9804 27.0001 13.2348 27.0001 13.5V14.1725C26.6532 14.2955 26.332 14.4815 26.0526 14.7212L25.4689 14.3837C25.3551 14.3181 25.2295 14.2755 25.0993 14.2583C24.9691 14.2412 24.8368 14.2499 24.7099 14.2839C24.583 14.3179 24.4641 14.3766 24.3599 14.4566C24.2557 14.5365 24.1683 14.6362 24.1026 14.75C24.037 14.8638 23.9944 14.9893 23.9772 15.1196C23.9601 15.2498 23.9688 15.3821 24.0028 15.509C24.0368 15.6358 24.0955 15.7548 24.1754 15.859C24.2554 15.9632 24.3551 16.0506 24.4689 16.1162L25.0514 16.4525C24.983 16.8143 24.983 17.1857 25.0514 17.5475L24.4689 17.8837C24.3551 17.9494 24.2554 18.0368 24.1754 18.141C24.0955 18.2452 24.0368 18.3641 24.0028 18.491C23.9688 18.6179 23.9601 18.7502 23.9772 18.8804C23.9944 19.0107 24.037 19.1362 24.1026 19.25C24.1683 19.3638 24.2557 19.4635 24.3599 19.5434C24.4641 19.6234 24.583 19.6821 24.7099 19.7161C24.8368 19.7501 24.9691 19.7588 25.0993 19.7416C25.2295 19.7245 25.3551 19.6819 25.4689 19.6162L26.0526 19.2787C26.332 19.5185 26.6532 19.7045 27.0001 19.8275V20.5C27.0001 20.7652 27.1055 21.0196 27.293 21.2071C27.4806 21.3946 27.7349 21.5 28.0001 21.5C28.2653 21.5 28.5197 21.3946 28.7072 21.2071C28.8948 21.0196 29.0001 20.7652 29.0001 20.5V19.8275C29.3471 19.7045 29.6683 19.5185 29.9476 19.2787L30.5314 19.6162C30.6832 19.7045 30.8558 19.7507 31.0314 19.75C31.2516 19.7501 31.4657 19.6775 31.6404 19.5435C31.8151 19.4094 31.9407 19.2215 31.9977 19.0088C32.0547 18.7961 32.0399 18.5705 31.9556 18.3671C31.8712 18.1637 31.7221 17.9938 31.5314 17.8837ZM27.0001 17C27.0001 16.8022 27.0588 16.6089 27.1687 16.4444C27.2785 16.28 27.4347 16.1518 27.6174 16.0761C27.8002 16.0004 28.0012 15.9806 28.1952 16.0192C28.3892 16.0578 28.5674 16.153 28.7072 16.2929C28.8471 16.4327 28.9423 16.6109 28.9809 16.8049C29.0195 16.9989 28.9997 17.2 28.924 17.3827C28.8483 17.5654 28.7201 17.7216 28.5557 17.8315C28.3912 17.9413 28.1979 18 28.0001 18C27.7349 18 27.4806 17.8946 27.293 17.7071C27.1055 17.5196 27.0001 17.2652 27.0001 17Z" fill="#757575"/>
</g>
<defs>
<clipPath id="clip0_721_30">
<rect width="32" height="32" fill="white"/>
</clipPath>
</defs>
</svg>
